<?xml version="1.0" encoding="utf-8"?>
<!-- Generator: Adobe Illustrator 16.0.4, SVG Export Plug-In . SVG Version: 6.00 Build 0)  -->
<!DOCTYPE svg PUBLIC "-//W3C//DTD SVG 1.1//EN" "http://www.w3.org/Graphics/SVG/1.1/DTD/svg11.dtd">
<svg version="1.1" xmlns="http://www.w3.org/2000/svg" xmlns:xlink="http://www.w3.org/1999/xlink" x="0px" y="0px" width="280px"
	 height="330px" viewBox="0 0 280 330" enable-background="new 0 0 280 330" xml:space="preserve">
<g id="Layer_1">
	<g opacity="0.5">
		<path fill-rule="evenodd" clip-rule="evenodd" fill="#444444" d="M64.315,85.758c-1.271,0-2.542,0-3.813,0
			c-0.693-1.478-0.447-3.096-1.77-4.638c-1.468-1.711,0.258-4.287,0.651-6.478c0.496-1.604,2.494-1.615,3.187-3.013
			c1.917-2.922,8.152-4.373,11.152-2.562c1.395,0.842,2.189,2.083,2.157,3.776c-0.028,1.49-0.269,2.986,0.1,4.47
			c0.232,1.038,1.084,1.691,1.586,2.559c0.875,1.515,1.372,3.13-0.177,4.494c-1.326,1.168-2.799,0.921-4.213,0.004
			c-0.963-0.624-1.877-1.3-2.618-2.17C66.877,80.596,66.374,84.549,64.315,85.758z"/>
		<path fill-rule="evenodd" clip-rule="evenodd" fill="#535353" d="M72.707,79.655c0.32,0.946,0.638,1.894,0.96,2.839
			c0.296,0.865,0.697,1.71,1.754,1.669c0.412-0.016,0.933-0.4,1.183-0.767c0.633-0.929,0.182-1.703-0.646-2.221
			c-1.501-0.938-1.756-2.348-1.645-3.934c1.265-0.521,1.325-1.657,1.577-2.794c0.341-1.542,0.879-3.082,2.983-2.9
			c1.704,1.854,3.231,3.24,6.331,2.247c1.93-0.619,4.771-0.138,6.034,2.501c0.113,2.453,1.08,4.853,0.463,7.352
			c-1.591,2.471-4.109,1.717-5.617,0.675c-3.034-2.097-5.408-2.006-7.916,0.542c-0.416,0.422-1.169,0.458-1.651,0.895
			c-0.763,0-1.525,0-2.288,0C70.522,83.55,70.289,82.618,72.707,79.655z"/>
		<path fill-rule="evenodd" clip-rule="evenodd" fill="#7B7B7B" d="M76.518,85.758c1.508-1.613,1.211-4.399,3.691-5.43
			c2.114-0.878,3.84-1.642,5.172,1.274c1.053,2.305,3.11,3.199,5.644,1.9c0.347-0.306,0.677-0.288,0.989,0.054
			c0.113,0.755,0.383,1.527-0.242,2.201C86.688,85.758,81.603,85.758,76.518,85.758z"/>
		<path fill-rule="evenodd" clip-rule="evenodd" fill="#757575" d="M72.707,79.655c-0.153,2.199,0.107,4.295,1.523,6.103
			c-3.305,0-6.61,0-9.915,0C64.706,80.27,68.882,77.232,72.707,79.655z"/>
		<path fill-rule="evenodd" clip-rule="evenodd" fill="#BEBEBE" d="M91.772,85.758c-0.021-0.774-0.042-1.548-0.063-2.322
			c-0.57-2.373-0.44-4.764-0.183-7.157c0.099-0.97,0.062-1.968,0.551-2.861c0.215-0.296,0.461-0.709,0.787-0.731
			c3.78-0.254,4.293-2.349,3.121-5.438c0.003-0.41,0.024-0.811,0.064-1.218c1.98-3.498,3.108-3.898,5.782-2.058
			c-1.685,0.898-3.534,1.45-1.735,4.13c1.295,1.932-0.699,6.151-2.985,6.613c-1.616,0.327-2.057,1.006-2.207,2.452
			c-0.309,2.985-3.029,5.322-2.369,8.591C92.281,85.758,92.027,85.758,91.772,85.758z"/>
		<path fill-rule="evenodd" clip-rule="evenodd" fill="#9E9E9E" d="M59.82,74.352c-0.505,2.773-1.633,5.525,0.782,8.144
			c0.527,0.571-0.038,2.148-0.1,3.263c-0.254,0-0.508,0-0.763,0c-1.889-3.882-2.117-7.874-0.917-12.009
			c0.312-1.077-0.291-1.915-1.307-2.401c-0.263-1.771,0.761-2.279,2.206-1.978c1.253,0.261,1.745,1.297,1.699,2.559
			C61.378,73.06,60.488,73.633,59.82,74.352z"/>
		<path fill-rule="evenodd" clip-rule="evenodd" fill="#757575" d="M87.961,25.542c11.159,1.477,22.289,3.12,32.589,8.032
			c4.093,1.952,8.19,3.985,10.936,7.854c0.553,0.875,0.279,1.579-0.451,2.19c-1.375,0.722-2.437,0.069-3.443-0.795
			c-7.334-6.298-16.249-8.903-25.457-10.661c-3.345-0.639-6.604-1.675-9.999-2.047c-3.066,0.535-6.131,0.161-9.192,0
			c-0.866,0.082-1.789-0.032-2.487,0.678c-0.434,0.441-1.104,0.813-1.028,1.496c0.108,0.978,1.038,1.062,1.742,1.077
			c4.454,0.097,8.77,1.128,13.382,0.52c6.593-0.87,13.342-0.216,19.82,1.592c3.316,0.925,3.514,1.932,1.814,5.156
			c-1.355,0.654-2.803,0.44-4.227,0.463c-1.943-0.972-3.968-1.326-6.17-1.425c-9.235-0.417-18.502,0.551-27.719-0.826
			C73.695,38.193,69.989,36.854,68,32.5c-1.146-2.508-3.269-2.959-5.758-2.32c-0.967,0.249-1.836,0.918-2.917,0.687
			c-1.266-1.559-3.394-2.331-4.09-4.424c2.917-0.579,6.128,0.79,8.812-1.332c6.734,0.027,13.469-0.015,20.204,0.032
			C85.487,25.151,86.795,24.769,87.961,25.542z"/>
		<path fill-rule="evenodd" clip-rule="evenodd" fill="#717171" d="M55.234,26.442c1.807,0.662,4.012,0.917,3.757,3.682
			c1.602,1.476,0.615,2.685-0.373,3.932c-2.313,2.918-2.318,2.997,1.433,3.835c2.759,0.617,5.329,1.658,7.776,3.014
			c5.661,3.137,8.527,9.442,7.383,15.795c-0.281,1.564-1.242,2.419-2.368,3.261c-1.773,0.083-3.353,1.978-5.288,0.562
			c-0.993-1.458-0.11-2.62,0.575-3.845c1.66-2.965,1.079-5.623-1.243-7.964c-4.625-4.664-10.458-5.912-16.734-5.782
			c-1.846,0.039-3.786,0.952-5.322-0.844c-1.859-1.801,1.143-3.479,0.134-5.262c0.013-0.356,0.086-0.698,0.217-1.028
			c1.66-2.408,5.474-1.018,6.97-4.201c-1.463-0.736-2.961-0.347-4.445-0.103c-1.537,0.902-3.318,0.964-4.961,1.497
			c-2.03,1.088-3.784,2.198-0.641,4.089c0.328,1.943,1.854,3.28,2.569,5.032c-0.407,1.769-1.883,1.62-3.182,1.791
			c-2.595,1.632-5.816,1.678-8.406,3.325c-0.81,0.089-1.453-0.243-2-0.804c-2.253-1.947-0.673-3.394,1.027-5.244
			c-1.823,1.887-3.333,3.398-0.946,5.354c1.155,1.443,0.792,2.941,0.181,4.453c-1.432,2.392-2.564,1.327-3.645-0.316
			c-2.165-6.521-0.993-11.676,4.373-15.979C38.779,29.318,46.851,27.335,55.234,26.442z"/>
		<path fill-rule="evenodd" clip-rule="evenodd" fill="#575757" d="M67.998,60.497c1.368-0.342,2.12-2.289,3.92-1.507
			c0.181,0.649,0.361,1.298-0.014,1.891c0.316-0.329,0.605-0.608,0.916-0.875c5.434-4.267,11.57-5.835,18.388-4.722
			c2.586,1.634,4.827,3.505,4.759,6.954c0.726,1.28,1.354,2.574,0.521,4.052c-0.525,1.569-0.792,3.295-2.127,4.444
			c-1.314,1.132-2.665,1.046-3.904-0.206c-0.532-1.294-1.005-2.5-2.905-2.225c-1.003,0.146-2.288-0.4-3.137-0.082
			c-5.698,2.139-11.376,0.125-17.051,0.129c-3.236,0.002-4.049,0.809-3.838,4.379c-0.627,1.931-2.01,2.135-3.707,1.622
			c-0.047-1.299,1.21-2.75-0.222-3.862c-0.929-0.721-1.606,0.027-2.083,0.858l-0.062-0.08c-2.523,0.606-1.998-0.823-1.494-2.238
			c0.213-0.284,0.426-0.567,0.639-0.851c0.699-0.704,0.974-1.575,0.171-2.249c-2.946-2.468-0.747-3.36,1.248-4.361
			c2.599,0.227,5.167,0.26,7.529-1.14C66.361,59.946,67.193,60.025,67.998,60.497z"/>
		<path fill-rule="evenodd" clip-rule="evenodd" fill="#656565" d="M96.311,66.015c-0.29-1.208-1.414-1.726-2.137-2.575
			c2.896-1.829,2.422-3.698,0.134-5.686c-1.039-0.903-2.004-1.9-2.967-2.906c-1.484-4.458-0.091-7.968,3.726-10.445
			c5.192-3.369,10.779-5.479,17.144-4.5c1.059-0.05,2.114-0.53,3.176-0.022c0.486,1.654-0.397,2.745-1.528,3.735
			c-1.79,0.743-3.648,1.245-5.569,1.502c-2.997,0.827-5.993,1.604-8.333,3.906c-2.551,2.509-2.291,4.889,0.87,6.686
			c2.041,1.16,4.262,1.467,6.58,1.499c1.861,0.026,3.835-0.312,5.452,1.069c0.883,1.002,0.489,1.738-0.486,2.354
			c-3.301,1.786-7.062,2.119-10.541,3.341c-2.385-0.465-4.038,0.356-4.805,2.734C96.444,66.831,96.187,66.62,96.311,66.015z"/>
		<path fill-rule="evenodd" clip-rule="evenodd" fill="#868686" d="M58.238,63.583c-1.074,0.248-2.137,0.487-0.967,1.896
			c0.985,1.186,0.595,2.06-0.673,2.7c0.179-2.072-1.348-2.426-2.839-2.856c-4.112-1.188-8.267-2.253-12.312-3.636
			c-5.865-2.004-10.871-5.211-13.742-11.014c0.814,0.306,1.664,1.458,2.4-0.1c1.583-0.802,2.717,0.07,3.635,1.147
			c5.283,6.198,12.221,8.505,20.096,9.043C55.434,60.874,58.222,60.431,58.238,63.583z"/>
		<path fill-rule="evenodd" clip-rule="evenodd" fill="#878787" d="M112.372,60.632c-0.005-0.528-0.011-1.057-0.016-1.585
			c-0.708-1.953,0.915-2.381,2.063-3.005c2.891-1.572,5.98-2.73,8.934-4.182c3.055-1.502,5.878-3.092,5.877-7.116
			c0-0.824,0.734-1.278,1.401-1.672c0.286-0.547,0.57-1.095,0.855-1.643c2.596,4.32,2.301,8.763-1.582,11.46
			C124.617,56.562,118.899,59.603,112.372,60.632z"/>
		<path fill-rule="evenodd" clip-rule="evenodd" fill="#D6D6D6" d="M87.961,25.542c-7.964-0.56-15.962,0.735-23.915-0.434
			C72.026,24.786,80.017,23.884,87.961,25.542z"/>
		<path fill-rule="evenodd" clip-rule="evenodd" fill="#7F7F7F" d="M55.958,69.03c0.112,1.003,0.482,1.834,1.494,2.238
			c-0.775,1.153-1.986,2.858-3.128,1.671C52.78,71.337,55.107,70.255,55.958,69.03z"/>
		<path fill-rule="evenodd" clip-rule="evenodd" fill="#9E9E9E" d="M63.526,72.73c-2.008-0.899-1.307-2.368-0.872-3.851
			c0.542-1.847,1.904-2.17,3.536-2.106c6.42,0.25,12.838,0.827,19.258-0.053c1.498-0.206,3.017-0.252,4.527-0.366
			c1.104-0.083,2.498-0.558,2.997,0.811c0.572,1.567-0.691,2.218-1.953,2.674c-2.946,3.747-8.269,4.627-12.308,2.036
			c-1.202,1.589-1.153,3.6-1.803,5.376c-0.91,2.488-1.736,1.404-2.595-0.009c-0.089-1.258-0.076-2.533-0.292-3.769
			c-0.388-2.215-0.603-5.04-3.681-1.755c-0.541,0.577-1.429,1.11-1.913,0.264C66.056,67.837,64.888,70.758,63.526,72.73z"/>
		<path fill-rule="evenodd" clip-rule="evenodd" fill="#393939" d="M78.711,71.875c4.08-0.813,8.092-2.04,12.307-2.037
			c3.76,1.484,3.273-2.904,5.293-3.825c0.238,0.232,0.477,0.463,0.715,0.694c0.085,0.208,0.163,0.42,0.235,0.633
			c0.605,3.269-0.832,5.286-3.875,6.316c-0.064,0.971-0.129,1.942-0.193,2.913c-0.972,0.832-1.952,1.103-2.949,0.04
			c-2.48-0.736-4.851-1.87-7.275,0.52c-1.402,1.382-2.435-0.243-3.291-1.301C78.743,74.673,78.867,73.235,78.711,71.875z"/>
		<path fill-rule="evenodd" clip-rule="evenodd" fill="#575757" d="M90.244,76.61c0.983-0.013,1.966-0.027,2.95-0.04
			c-0.369,2.316-1.665,4.432-1.484,6.867c-0.229,0.018-0.457,0.04-0.684,0.066c-0.139-1.065,0.383-2.497-0.905-3.02
			C86.44,78.991,89.223,77.861,90.244,76.61z"/>
		<path fill-rule="evenodd" clip-rule="evenodd" fill="#7B7B7B" d="M93.386,73.657c1.763-1.817,2.989-3.962,3.875-6.316
			c1.062,0.284,2.254,0.974,1.51,2.012c-0.953,1.33-0.266,3.819-2.75,4.059C95.143,73.497,94.265,73.576,93.386,73.657z"/>
		<path fill-rule="evenodd" clip-rule="evenodd" fill="#D6D6D6" d="M112.21,39.903c-5.86,1.881-12.191,2.608-17.058,6.931
			c-2.417,2.147-3.43,4.648-1.899,7.766c1.014,2.573-0.117,2.921-2.28,2.198c-6.658-0.677-12.631,1.338-18.273,4.652
			c-0.893,0.389-1.583,0.388-1.624-0.85c0.281-0.536,0.562-1.073,0.843-1.609c3.206-4.268,1.873-11.365-2.987-15.037
			c-4.138-3.127-8.899-4.651-14.083-4.919c-1.215-0.062-2.948,0.168-3.327-1.176c-0.42-1.489,1.341-1.883,2.368-2.495
			c2.178-1.296,4.48-2.439,5.102-5.239c2.574-3.692,6.414-1.973,9.771-2.227c0.853-0.064,1.059,0.754,1.193,1.605
			c0.868,5.515,2.044,6.568,7.609,7.341c8.048,1.118,16.153,0.739,24.233,1.028c3.024,0.108,6.041,0.445,9.06,0.69
			C111.667,38.627,112.401,38.809,112.21,39.903z"/>
		<path fill-rule="evenodd" clip-rule="evenodd" fill="#AFAFAF" d="M130.63,43.071c1.009,5.781,0.383,7.084-5.006,9.72
			c-4.392,2.147-8.843,4.175-13.268,6.255c-4.256-0.109-8.576,0.521-12.625-1.552c-2.189-1.12-3.732-2.629-3.951-5.12
			c-0.233-2.656,1.499-4.161,3.564-5.315c2.654-1.484,5.507-2.494,8.445-3.264c0.945,1.323-0.217,2.062-0.864,2.876
			c-0.874,1.098-1.5,2.282-1.738,3.657c0.109,2.17,1.743,2.198,3.248,2.236c3.431,0.086,6.608-1.017,9.744-2.253
			c1.237-0.918,1.529-2.533,2.6-3.562c0.187-0.295,0.607-0.7,0.303-0.948c-0.79-0.645-1.246,0.512-1.961,0.517
			c-2.604-0.432-4.746-1.551-5.974-4.023c0.747-0.804,1.494-1.608,2.24-2.413c1.221-4.017-2.346-3.341-4.035-3.577
			c-4.371-0.611-8.832-0.931-13.243-0.824c-6.867,0.166-13.662-0.806-20.504-0.877c-0.752-0.008-1.523-0.129-2.246-0.337
			c-0.842-0.242-1.866-0.557-1.801-1.641c0.059-0.988,1.052-0.95,1.786-0.972c1.688-0.051,2.892-0.636,3.423-2.403
			c0.623-2.072,2.071-2.356,3.892-1.504c0.835,3.301,3.243,4.382,6.818,3.097c1.23-0.442,2.111-1.318,2.993-2.21
			c11.1,1.256,21.783,3.916,31.712,9.227C126.687,39.198,128.458,41.364,130.63,43.071z"/>
		<path fill-rule="evenodd" clip-rule="evenodd" fill="#EAEAEA" d="M92.47,28.631c1.005,3.33-0.244,4.767-3.685,4.487
			c-2.005-0.162-4.045-0.037-6.025-0.334c-1.379-0.208-2.726-1.003-2.877-2.611c-0.179-1.915,1.428-2.092,2.775-2.428
			C85.869,28.705,89.175,28.608,92.47,28.631z"/>
		<path fill-rule="evenodd" clip-rule="evenodd" fill="#595959" d="M77.359,26.47c-0.654,0.822-0.817,1.244-1.091,1.335
			c-1.47,0.491-2.73,1.897-4.434,1.301c-0.621-0.218-0.587-1.199-0.211-1.652C73.163,25.603,75.037,26.431,77.359,26.47z"/>
		<path fill-rule="evenodd" clip-rule="evenodd" fill="#B4B4B4" d="M58.238,63.583c-4.556-1.661-9.506-1.387-14.104-2.992
			c-5.698-1.988-10.213-5.474-14.03-10.018c0.225-1.5,0.448-3,0.672-4.5l-0.05,0.047c0.757-0.045,1.513-0.089,2.271-0.134
			c2.868-0.993,5.061-0.01,6.791,2.318c0.576,1.01,0.394,2.111,0.47,3.208c0.223,3.215,1.414,4.073,4.812,3.753
			c4.813,1.526,9.64,2.312,14.52,0.279c0.57-0.273,1.165-0.498,1.707-0.83c0.545-0.334,1.138-0.689,1.042-1.427
			c-0.128-0.976-1.064-1.208-1.718-1.118c-2.608,0.362-4.022-1.163-5.709-2.815c-2.22-2.174-5.182-1.042-7.877-0.801
			c-0.796-0.05-1.595-0.068-2.313-0.483c-1.146-0.82-2.547-1.118-3.748-1.788c-1.975-1.102-2.546-2.47-0.264-3.941
			c1.279-0.109,2.595-0.059,3.713-0.862l0.065-0.016c5.958-0.783,11.812-0.653,17.54,1.52c5.321,2.019,9.259,6.933,9.223,11.248
			c-0.023,2.785-2.468,4.034-3.249,6.265C65.517,63.97,61.89,63.816,58.238,63.583z"/>
		<path fill-rule="evenodd" clip-rule="evenodd" fill="#989898" d="M45.952,36.138c-0.021,0.233-0.034,0.467-0.039,0.702
			c-1.079,2.358-2.565,2.682-4.473,0.894c-1.943-0.377-4.993,1.003-5.526-1.617c-0.567-2.785,2.808-2.868,4.596-3.947
			c0.503-0.304,1.191-0.302,1.795-0.44c0.316,0.877,1.277,0.95,1.865,1.489C44.655,34.259,45.78,34.909,45.952,36.138z"/>
		<path fill-rule="evenodd" clip-rule="evenodd" fill="#B2B2B2" d="M45.952,36.138c-1.372-0.24-2.278-1.111-3.007-2.223
			c0.273-1.33,1.441-1.404,2.409-1.55c1.447-0.218,2.177-0.889,2.084-2.374c1.591-0.292,3.177-0.622,4.776-0.862
			c1.268-0.19,2.985-1.344,3.663,0.342c0.579,1.438-1.284,2.201-2.182,3.17C51.612,34.889,48.746,35.442,45.952,36.138z"/>
		<path fill-rule="evenodd" clip-rule="evenodd" fill="#CDCDCD" d="M30.775,46.073c-1.643-0.344-2.674-1.424-2-2.973
			c0.826-1.895,1.365-4.353,3.636-5.01c1.482-0.429,2.952,0.814,3.942,1.887c1.246,1.348-0.423,1.606-1.186,1.934
			c-2.021,0.867-3.993,1.713-4.443,4.209L30.775,46.073z"/>
		<path fill-rule="evenodd" clip-rule="evenodd" fill="#949494" d="M40.708,42.343c-0.756,1.645-0.168,2.594,1.553,2.858
			c1.233,0.19,2.449,0.334,3.006,1.691c-0.196,0.292-0.457,0.504-0.781,0.64C42.87,47.65,41.024,47,39.933,48.889
			c-0.276,0.204-0.584,0.327-0.924,0.375c-1.799-1.469-3.928-2.332-6.013-3.276C35.09,43.765,38.13,43.545,40.708,42.343z"/>
		<path fill-rule="evenodd" clip-rule="evenodd" fill="#DADADA" d="M47.438,29.991c1.494,0.406,4.071-0.638,4.332,0.969
			c0.324,1.995-2.489,1.214-3.74,2.065c-1.514,1.03-3.348,0.811-5.084,0.89c-0.923-0.521-1.084-1.265-0.641-2.186
			C44.016,31.15,45.728,30.571,47.438,29.991z"/>
		<path fill-rule="evenodd" clip-rule="evenodd" fill="#5C5C5C" d="M41.44,37.734c1.491-0.297,2.983-0.595,4.473-0.893
			c2.768,2.748,2.702,2.961-1.428,4.625c0,0-0.064,0.016-0.065,0.015C41.575,41.705,39.501,41.314,41.44,37.734z"/>
		<path fill-rule="evenodd" clip-rule="evenodd" fill="#A3A3A3" d="M73.465,64.597c4.958-4.401,10.045-5.644,15.605-5.443
			c1.229,0.044,2.242,0.64,2.483,1.937c0.213,1.15-0.47,2.108-1.485,2.359C84.869,64.732,79.617,65.418,73.465,64.597z"/>
		<path fill-rule="evenodd" clip-rule="evenodd" fill="#BEBEBE" d="M90.973,56.797c1.304-0.169,2.174-0.789,2.281-2.199
			c2.349,3.087,5.256,5.411,9.951,6.493c-3.366,1.866-6.205,2.084-9.03,2.349C94.438,60.584,93.545,58.286,90.973,56.797z"/>
		<path fill-rule="evenodd" clip-rule="evenodd" fill="#717171" d="M71.076,60.599c0.542,0.283,1.083,0.566,1.624,0.85
			c-1.25,1.344-2.645,2.471-4.868,3.387C68.331,62.514,69.804,61.631,71.076,60.599z"/>
		<path fill-rule="evenodd" clip-rule="evenodd" fill="#C8C8C8" d="M121.594,47.563c-0.128,1.697-0.851,3.028-2.376,3.867
			c-5.698,0.539-11.158-1.499-16.8-1.561c0.069-3.546,3.732-3.916,5.371-6.075c1.786-0.5,3.572-1.001,5.358-1.501
			c2.547-0.023,4.212,1.749,6.124,3.015C120.929,45.149,121.899,45.7,121.594,47.563z"/>
		<path fill-rule="evenodd" clip-rule="evenodd" fill="#F0F0F0" d="M102.418,49.87c1.032-0.902,2.034-1.84,3.106-2.692
			c0.693-0.552,1.755-1.156,2.359-0.363c2.389,3.134,5.854,2.914,9.169,3.258c0.926,0.097,1.594,0.665,2.166,1.357
			c-4.339,2.03-8.721,3.92-13.69,2.906C103.143,53.849,100.935,53.111,102.418,49.87z"/>
		<path fill-rule="evenodd" clip-rule="evenodd" fill="#848484" d="M121.594,47.563c-0.775-0.751-1.55-1.503-2.324-2.254
			c0.703-2.131,2.388-2.868,4.086-1.773c1.849,1.192,0.757,3.463,0.128,4.779C122.643,50.078,122.227,47.942,121.594,47.563z"/>
		<path fill-rule="evenodd" clip-rule="evenodd" fill="#F6F6F6" d="M44.586,46.942c0.229,0,0.455-0.016,0.681-0.049
			c0.756-0.011,1.512-0.022,2.268-0.034c5.23-0.837,5.367-0.782,6.856,4.195c0.281,0.938,0.854,1.141,1.634,1.191
			c0.828,0.053,1.652-0.102,2.488-0.054c1.542,0.088,3.359-0.418,4.137,1.476c0.834,2.034-0.902,2.878-2.131,3.902
			c-5.458,1.854-10.814,1.587-16.071-0.767c-4.924-2.195-5.511-5.532-1.66-9.436C43.342,47.035,43.944,46.906,44.586,46.942z"/>
		<path fill-rule="evenodd" clip-rule="evenodd" fill="#DCDCDC" d="M60.52,57.569c0.398-0.995,1.645-1.878,0.766-3.063
			c-0.79-1.063-2.08-0.784-3.163-0.517c-2.858,0.706-5.539,0.665-7.693-1.653c-0.944-1.015-1.637-2.184,0.469-2.747
			c0.743-0.198,2.083,0.467,1.959-0.968c-0.097-1.125-1.278-1.479-2.306-1.607c-0.997-0.124-2.011-0.108-3.017-0.154
			c2.209-1.053,4.474-1.153,6.554,0.14c2.656,1.65,4.938,3.751,8.381,4.08c2.055,0.196,2.083,2.289,1.248,3.97
			C63.073,56.349,61.932,57.167,60.52,57.569z"/>
		<path fill-rule="evenodd" clip-rule="evenodd" fill="#949494" d="M43.812,47.679c-3.511,4.197-3.511,4.197,0.637,9.123
			c-3.074,1.21-4.014-1.053-4.78-3.153c-0.497-1.361-0.457-2.918-0.658-4.386c-0.001,0.001,0.184-0.146,0.184-0.146
			C40.722,48.599,41.525,45.755,43.812,47.679z"/>
		<path fill-rule="evenodd" clip-rule="evenodd" fill="#686868" d="M43.812,47.679c-1.715-0.086-2.644,2.355-4.617,1.438
			c0.773-3.265,2.693-3.686,5.392-2.175C44.328,47.188,44.07,47.434,43.812,47.679z"/>
	</g>
</g>
<g id="Layer_2" display="none">
	<g display="inline" opacity="0.5">
		<path fill-rule="evenodd" clip-rule="evenodd" fill="#5C5C5C" d="M162.875,119.29c-2.76-7.336,3.161-12.066,5.312-17.938
			c0.345-0.941-0.09-2.168-0.164-3.263c0.751-1.32,2.146-1.942,4.845-2.163c0.342,0.259,0.809,0.59,0.738,0.979
			c-0.886,4.881,2.106,9.469,1.061,14.351c-0.572,1.568-1.766,2.598-3.057,3.548c-1.45-0.637-3.335,0.612-4.56-1.035
			c-0.32-0.855-0.042-1.503,0.696-1.986c0.147-0.112,0.29-0.235,0.427-0.365c-0.065,0.073-0.141,0.137-0.228,0.219
			c-3.27,1.644-3.438,2.116-2.039,5.646c0.056,0.906-0.564,1.435-1.107,2.008C164.157,119.29,163.517,119.29,162.875,119.29z"/>
		<path fill-rule="evenodd" clip-rule="evenodd" fill="#919191" d="M182.747,119.29c-4.06,0-8.119,0-12.18,0
			c-0.517-0.708-0.322-1.491-0.25-2.265c0.223-0.881,0.965-1.403,1.497-2.055c2.648-3.244,3.014-3.226,5.256,0.443
			c0.728,1.192,1.456,1.845,2.738,0.887c0.66-0.493,1.344-0.544,2.098-0.448C183.936,116.573,183.896,117.796,182.747,119.29z"/>
		<path fill-rule="evenodd" clip-rule="evenodd" fill="#8D8D8D" d="M194.286,119.29c-2.138,0-4.273,0-6.411,0
			c-0.402-0.612-0.343-1.238-0.062-1.873c0.848-1.274,2.226-1.792,3.502-2.458c1.863-0.596,3.508-3.268,5.713-0.603
			C196.87,116.42,195.341,117.724,194.286,119.29z"/>
		<path fill-rule="evenodd" clip-rule="evenodd" fill="#DCDCDC" d="M194.286,119.29c0.811-1.52,1.621-3.04,2.432-4.559
			c-1.049-1.388,0.897-2.939-0.237-4.324c0.032-0.293,0.153-0.544,0.36-0.754c1.711-0.369,3.422-0.737,5.133-1.106
			c-1.121,2.006-2.329,3.971-3.335,6.033c-0.733,1.503-1.202,3.135-1.789,4.71C195.995,119.29,195.141,119.29,194.286,119.29z"/>
		<path fill-rule="evenodd" clip-rule="evenodd" fill="#626262" d="M188.479,117.979c-0.201,0.437-0.402,0.874-0.604,1.311
			c-1.709,0-3.419,0-5.128,0c-0.639-0.846-1.276-1.692-1.915-2.538c0.076-3.442,1.485-4.138,4.635-2.295
			c0.763,0.825,2.103-0.02,2.813,0.961C189.018,116.219,187.937,117.161,188.479,117.979z"/>
		<path fill-rule="evenodd" clip-rule="evenodd" fill="#6C6C6C" d="M171.212,117.368c-0.215,0.641-0.43,1.281-0.645,1.921
			c-1.923,0-3.846,0-5.769,0c-0.006-0.864-0.013-1.729-0.019-2.593c-0.358-1.028,0.197-1.571,1.04-1.962
			c1.368-0.195,2.583,0.144,3.629,1.057C170.136,116.206,170.652,116.811,171.212,117.368z"/>
		<path fill-rule="evenodd" clip-rule="evenodd" fill="#5D5D5D" d="M234.604,27.021c3.405,3.22,6.811,6.439,10.216,9.658
			c0.073,1.688-1.242,1.119-2.1,1.299c-1.904-0.55-2.565-2.462-3.918-3.632c-1.782-1.541-3.581-2.214-5.848-1.168
			c-5.714,2.635-10.729,6.114-14.232,11.485c-3.548,5.439-3.303,9.775,1.31,14.382c3.306,3.301,4.953,6.812,3.521,11.497
			c-0.648,2.119-1.652,3.956-3.445,5.179c-1.779,1.214-3.128,2.789-4.476,4.401c-1.266,0.444-1.578,1.912-2.701,2.51
			c-1.519,0.553-3.102,0.88-4.646,1.35c-2.298,0.141-2.609-0.946-1.719-2.776c0.147-0.289,0.297-0.578,0.447-0.865
			c1.035-1.796,2.45-3.186,4.321-4.122c1.049-0.524,1.992-1.225,2.881-1.995c5.158-4.467,5.486-7.702,0.651-12.49
			c-6.416-6.351-4.544-15.918-0.063-21.438c4.627-5.7,10.327-9.697,16.829-12.783C232.503,26.627,233.439,26.136,234.604,27.021z"/>
		<path fill-rule="evenodd" clip-rule="evenodd" fill="#616161" d="M158.323,55.178c8.019-21.961,41.09-37.174,68.006-31.283
			c1.723,2.77-0.57,2.683-2.183,3.076c-4.219-1.212-8.546-0.975-12.859-0.914c-1.983,0.028-3.734,0.599-5.009,2.231
			c-0.727,0.472-1.503,0.823-2.364,0.958c-1.76,0.27-3.223-0.898-4.901-1.022c-2.858-0.211-5.641-0.114-7.853,2.102
			c-1.895,0.883-4.073,0.995-5.86,2.167c-2.484,1.889-5.166,3.514-7.484,5.627c-3.325,0.762-5.189,3.376-7.266,5.723
			c-2.837,4.142-6.41,7.753-8.789,12.226c-0.438,0.823-1.152,1.174-2.097,0.977C158.797,56.724,158.6,55.923,158.323,55.178z"/>
		<path fill-rule="evenodd" clip-rule="evenodd" fill="#858585" d="M246.845,43.692c1.863,17.065-8.976,25.771-21.821,33.156
			c-0.704-0.276-1.526-0.4-1.724-1.333c-0.114-1.352,0.953-1.728,1.846-2.292c7.097-4.489,13.058-10.038,16.923-17.664
			c0.65-1.284,0.946-2.387,0.658-3.721C242.957,48.545,244.197,45.763,246.845,43.692z"/>
		<path fill-rule="evenodd" clip-rule="evenodd" fill="#E2E2E2" d="M208.509,83.46c1.455-0.442,2.911-0.884,4.366-1.327
			c0.614-0.465,1.239-0.673,1.899-0.081c-9.022,2.06-14.083,6.287-9.427,16.397c0.094,0.205-5.231,2.464-7.533,4.364
			c-1.553,1.282-2.255,3.61-3.206,5.535c-0.026,0.054,1.454,0.852,2.232,1.303c0.015,0.263,0.029,0.526,0.044,0.789
			c0.255,2.87-2.216,2.604-3.824,3.342c-2.198-0.164-2.682-1.234-1.839-3.227c1.997-4.724,3.488-9.649,6.432-13.979
			c1.027-1.512,2.196-1.78,3.648-1.999c1.528-0.8,1.183-2.071,0.542-3.123c-0.576-0.946-0.876-1.909-1.062-2.959
			c-0.614-3.106,1.155-4.912,4.973-4.998C206.671,83.478,207.594,83.968,208.509,83.46z"/>
		<path fill-rule="evenodd" clip-rule="evenodd" fill="#707070" d="M173.455,87.271c-2.437-1.338-4.872-2.676-7.309-4.015
			c-3.867-3.145-8.102-5.988-9.313-11.318c0.87-0.92,0.14-3.165,2.416-2.924c0.384,0.205,0.797,0.475,0.891,0.873
			c1.71,7.317,7.523,10.102,13.728,12.438c1.314,0.495,2.75,0.787,2.5,2.698C175.615,86.055,175.421,87.814,173.455,87.271z"/>
		<path fill-rule="evenodd" clip-rule="evenodd" fill="#525252" d="M159.085,69.32c-0.751,0.873-1.501,1.746-2.252,2.618
			c-1.998-5.809-1.19-11.368,1.49-16.761c0.449,0.43,0.897,0.859,1.346,1.289c1.649,1.43-0.05,3.011,0.213,4.506
			c-0.789,2.258,1.391,3.836,1.358,5.92C160.929,68.066,160.886,69.475,159.085,69.32z"/>
		<path fill-rule="evenodd" clip-rule="evenodd" fill="#848484" d="M246.845,43.692c-1.068,2.754-2.135,5.508-3.202,8.262
			c-0.038,2.262-0.921,3.035-3.002,1.707c-0.965-1.466,0.228-2.646,0.545-3.937c0.266-0.945,0.145-1.938,0.305-2.906
			c0.979-1.232,1.741-2.543,1.453-4.225c0.331-0.966-0.11-1.762-0.461-2.63c-0.46-1.135-0.918-2.383,0.479-3.298
			c0.619,0.005,1.238,0.01,1.857,0.014C245.494,39.017,246.169,41.354,246.845,43.692z"/>
		<path fill-rule="evenodd" clip-rule="evenodd" fill="#737373" d="M214.774,82.053c-0.633,0.027-1.267,0.054-1.899,0.081
			c0.665-0.868,1.329-1.735,1.994-2.603c1.896-1.377,3.787-2.759,5.771-4.014c1.147-0.726,2.155-1.023,3.135,0.184
			c0.417,0.383,0.833,0.765,1.249,1.147C221.607,78.583,218.19,80.318,214.774,82.053z"/>
		<path fill-rule="evenodd" clip-rule="evenodd" fill="#848484" d="M223.725,25.11c0.868-0.405,1.736-0.81,2.604-1.215
			c2.758,1.042,5.517,2.084,8.274,3.126c-0.627,0.623-1.255,1.245-1.882,1.868c-2.286-0.657-4.689-0.805-6.942-1.616
			C224.718,26.89,223.44,26.754,223.725,25.11z"/>
		<path fill-rule="evenodd" clip-rule="evenodd" fill="#5C5C5C" d="M173.455,87.271c0.803-0.912,1.604-1.825,2.407-2.737
			c2.116-2.441,4.694-0.612,7.058-0.767c2.174,0.353,4.266,1.127,6.493,1.224c0.932,0.04,2.12-0.013,2.361,1.119
			c0.284,1.328-0.599,2.118-1.839,2.479c-3.162,0.47-6.357,0.09-9.532,0.289c-1.167,0.073-2.711-0.321-3.005,1.55
			c0.525,3.205,0.087,6.62,2.131,9.481c0.123,1.61-0.763,2.412-2.239,2.448c-1.537,0.038-2.228-0.992-2.441-2.416
			c-0.206-1.369-0.479-2.72-1.403-3.827c-2.238-0.95-4.071,0.41-6.001,1.102c-0.811,0.291-1.468,1.291-2.405,0.272
			C167.845,94.082,170.649,90.676,173.455,87.271z"/>
		<path fill-rule="evenodd" clip-rule="evenodd" fill="#575757" d="M165.039,97.487c2.908-0.89,5.816-1.78,8.725-2.67
			c-0.013,0.841-0.406,1.335-1.274,1.396c-1.489,0.625-2.978,1.25-4.467,1.875c-1.23,0.515-2.461,1.031-3.691,1.546
			C164.567,98.918,164.803,98.203,165.039,97.487z"/>
		<path fill-rule="evenodd" clip-rule="evenodd" fill="#D1D1D1" d="M172.489,96.212c0.425-0.465,0.851-0.93,1.274-1.396
			c5.018-0.714,1.694,3.195,2.521,4.784c0.907,1.742,1.478,1.823,2.633,0.463c1.313-2.75,1.923-2.722,4.362,0.197
			c0.302,0.125,0.604,0.252,0.906,0.374c3.202,0.121,4.985,2.933,7.642,4.177c1.881,0.882-0.044,3.188-0.371,4.854
			c-0.178,0.278-0.422,0.492-0.709,0.651c-0.727,0.317-1.47,0.364-2.111-0.154c-1.676-1.354-3.36-0.973-5.06-0.088
			c-1.464,0.991-1.605,2.686-2.271,4.112c-0.507,1.087-1.194,2.225-2.541,2.4c-1.49,0.193-1.956-1.202-2.297-2.137
			c-0.552-1.51-2.052-2.142-2.697-3.484C173.682,106.018,169.199,101.453,172.489,96.212z"/>
		<path fill-rule="evenodd" clip-rule="evenodd" fill="#4A4A4A" d="M173.771,110.964c5.38,5.815,6.755,1.044,8.345-3.157
			c1.791-1.082,3.707-0.164,5.561-0.32c1.195-0.101,1.171,0.951,1.154,1.809c-0.054,2.838-1.172,5.13-3.512,6.789
			c-1.386,0.961-3.508-3.035-4.487,0.666c-2.875,5.385-6.936-7.733-9.621,0.617c-0.645-0.219-1.289-0.438-1.934-0.657
			c-0.617-1.851,0.138-2.625,1.991-2.536C172.103,113.105,172.938,112.035,173.771,110.964z"/>
		<path fill-rule="evenodd" clip-rule="evenodd" fill="#363636" d="M166.198,115.513c-0.473,0.395-0.945,0.79-1.418,1.184
			c-0.298-2.364-0.596-4.728-0.894-7.092c1.396,0.643,2.792,1.285,4.188,1.927l-0.008-0.008c-0.237,0.66-0.475,1.321-0.712,1.981
			C167.505,114.483,167.61,115.435,166.198,115.513z"/>
		<path fill-rule="evenodd" clip-rule="evenodd" fill="#C2C2C2" d="M168.075,111.532c0.702-2.086,1.404-4.173,2.105-6.259
			c0.354,0.412,1.032,0.843,1.01,1.232c-0.132,2.196-0.016,4.645-3.123,5.02L168.075,111.532z"/>
		<path fill-rule="evenodd" clip-rule="evenodd" fill="#B3B3B3" d="M166.198,115.513c0.386-0.669,0.771-1.338,1.157-2.008
			c1.305,0.223,2.608,0.446,3.913,0.669c-0.664,0.845-1.327,1.691-1.991,2.536C168.251,116.312,167.225,115.913,166.198,115.513z"/>
		<path fill-rule="evenodd" clip-rule="evenodd" fill="#646464" d="M193.003,112.918c1.294-0.826,2.588-1.651,3.881-2.477
			c1.254-0.354,2.508-0.708,3.762-1.061c-1.309,1.783-2.618,3.566-3.928,5.35c-1.688,0.425-3.377,0.85-5.065,1.275
			c-0.853-0.372-1.769-0.696-1.474-1.94C190.793,112.879,192.216,113.681,193.003,112.918z"/>
		<path fill-rule="evenodd" clip-rule="evenodd" fill="#424242" d="M190.381,114.23c0.424,0.592,0.848,1.185,1.271,1.776
			c-1.058,0.658-2.115,1.315-3.174,1.973c-0.193-0.837-0.388-1.674-0.581-2.511c0.001-0.159,0.002-0.317,0.004-0.476
			C188.438,113.796,189.138,113.131,190.381,114.23z"/>
		<path fill-rule="evenodd" clip-rule="evenodd" fill="#C8C8C8" d="M185.319,116.085c0.527-3.376,7.449-9.228-3.203-8.278
			c3.397-2.03,6.025-0.68,8.37,1.909c1.572,3.042-1.62,3.866-2.651,5.696l0.062,0.056
			C187.038,115.674,186.179,115.88,185.319,116.085z"/>
		<path fill-rule="evenodd" clip-rule="evenodd" fill="#C3C3C3" d="M223.725,25.11c2.999,1.26,5.998,2.519,8.997,3.778
			c-8.213,3.745-15.427,8.606-19.33,17.202c-1.758,3.872-2.375,8.716,0.405,11.282c12.989,11.988,2.811,17.435-5.976,23.504
			c-2.491,0.524-5.079,0.542-7.464,1.645c-1.292,0.598-2.499-0.011-3.44-0.953c-1.039-1.04-0.809-2.227-0.08-3.325
			c0.643-0.967,0.626-2.133,1.062-3.153c0.719-1.058,1.55-2.039,2.325-3.06c1.176-1.795,2.274-3.642,4.432-4.514
			c1.041-0.42,1.378-1.531,1.883-2.442c1.229-1.559,0.74-2.154-1.117-1.979c-1.543,0.017-3.196,0.592-4.424-0.898
			c-0.976-1.108-2.079-2.054-3.448-2.657c-2.978-1.786-6.218-1.973-9.556-1.571c-4.007-0.601-5.036-2.335-4.107-5.925
			c0.772-2.988,2.102-5.722,3.15-8.586c2.393-1.537,5.493-1.614,7.63-3.693c1.568-1.264,3.406-2.078,5.146-3.058
			c3.469-2.365,4.893-5.739,4.814-9.844C210.55,21.46,217.31,25.161,223.725,25.11z"/>
		<path fill-rule="evenodd" clip-rule="evenodd" fill="#A4A4A4" d="M223.774,75.701c-2.969,1.277-5.938,2.553-8.905,3.83
			c9.309-7.708,7.438-14.153,1.123-24.086c-6.023-9.474,4.657-16.116,11.834-21.69c5.928-4.603,11.26-4.144,15.136,2.909
			c0.44,2.117,0.882,4.234,1.323,6.352c-0.874,0.862-1.847,0.498-2.449-0.158c-1.922-2.093-4.223-1.863-6.617-1.332
			c-2.284,0.667-4.175,1.885-5.556,3.846c-1.985,1.916-3.466,3.979-4.073,6.866c-0.586,2.787,0.75,4.587,2.05,6.528
			c0.777,1.161,1.819,0.821,2.729-0.019c3.101-0.862,6.354-1.417,8.482-4.225c0.707-0.535,1.239-1.378,2.291-1.311
			c0.834-0.418,1.667-0.838,2.501-1.257C242.497,64.453,232.919,69.896,223.774,75.701z"/>
		<path fill-rule="evenodd" clip-rule="evenodd" fill="#BCBCBC" d="M187.874,44.275c0.367,4.082-4.634,8.221,0.129,12.257
			c0.045,0.917-0.593,1.382-1.304,1.535c-2.444,0.527-4.699,1.736-7.216,1.954c-2.182-1.682-3.17-5.25-2.018-7.375
			c0.101-0.185,0.257-0.369,0.443-0.502c-0.141,0.158-0.3,0.298-0.444,0.453c-2.888,3.087-5.144,6.678-7.878,9.886
			c-0.711,0.902-0.957,2.203-1.911,2.835c-2.059,1.364-1.188,2.527,0.048,3.763c1.687,0.879,2.644,2.152,2.843,4.149
			c0.103,1.031,0.186,2.309,1.284,3.026c1.368,1.676,3.244,2.515,5.228,3.18c5.2,2.285,10.013,0.454,14.949-1.166
			c2.593-0.851,4.355-3.483,7.381-3.218c-4.369,12.301,7.999,0.431,8.413,5.825c-0.016,0.186-0.045,0.37-0.087,0.552
			c-4.699,4.27-10.423,4.667-16.331,4.267c-2.868-0.194-5.747,0.202-8.604-0.236c-2.312-0.308-4.625-0.616-6.937-0.925
			c-7.683-2.768-16.241-4.567-16.777-15.214c0.188-1.091,0.377-2.182,0.564-3.272c0.836-7.591,6.384-11.542,11.896-15.601
			c3.824-2.816,8.212-4.4,12.51-6.19C185.239,43.764,186.615,42.877,187.874,44.275z"/>
		<path fill-rule="evenodd" clip-rule="evenodd" fill="#737373" d="M182.799,85.459c8.492-0.228,17.044-0.087,24.936-4.031
			c0.258,0.677,0.516,1.354,0.774,2.032c-2.2,1.867-7.77-0.113-6.513,5.703c-0.588,0.412-1.251,0.347-1.911,0.304
			c-0.331-0.016-0.659-0.059-0.983-0.125c-2.094-0.922-4.251-0.976-6.503-0.718c-1.483,0.169-3.245,0.579-4.085-1.392
			c0.292-0.417,0.583-0.833,0.874-1.25C187.191,85.808,184.995,85.634,182.799,85.459z"/>
		<path fill-rule="evenodd" clip-rule="evenodd" fill="#A1A1A1" d="M200.576,37.775c-1.669,0.89-3.338,1.779-5.007,2.669
			c-4.264,0.766-8.14,2.666-12.143,4.185c-1.201,0.456-2.373,1.005-3.607,1.371c-2.295,0.68-2.748,0.213-2.48-2.472
			c0.255-0.419,0.594-0.768,0.965-1.082c1.998-0.821,3.712-2.127,5.37-3.454c1.997-1.599,4.01-3.121,6.322-4.249
			c1.182-0.576,2.784-1.039,1.81-2.977c-0.448-0.996-1.521-1.688-1.453-2.935c4.251-1.229,8.401-4.781,12.886-0.552
			c2.227,2.399,0.187,4.19-0.862,6.132C201.771,35.531,199.973,36.013,200.576,37.775z"/>
		<path fill-rule="evenodd" clip-rule="evenodd" fill="#A2A2A2" d="M158.319,60.993c0.45-1.509,0.9-3.017,1.35-4.526
			c3.414-4.494,6.828-8.988,10.242-13.482c3.245-0.339,3.811,2.249,4.794,4.384c-0.063,0.896-0.489,1.403-1.309,1.912
			c-5.18,3.221-9.896,6.94-12.787,12.534c-0.346,0.67-1.021,1.575-2.006,1.126C157.747,62.551,158.038,61.704,158.319,60.993z"/>
		<path fill-rule="evenodd" clip-rule="evenodd" fill="#A1A1A1" d="M177.011,36.637c2.558-1.718,5.114-3.435,7.672-5.153
			c2.029,0.879,4.258-0.963,6.249,0.451c0.816,0.9,0.77,1.922-0.267,2.401c-4.624,2.141-8.114,5.877-12.338,8.575
			c-1.038,0.362-2.07,0.667-3.031-0.192C173.702,40.08,176.139,38.579,177.011,36.637z"/>
		<path fill-rule="evenodd" clip-rule="evenodd" fill="#717171" d="M200.576,37.775c-1.089,0.094-3.278,1.941-2.446-1.161
			c0.307-1.141,2.497-1.663,3.184-2.842c0.958-1.646,1.312-3.645,1.925-5.493c0.463-0.471,0.926-0.943,1.389-1.415
			C206.762,31.795,203.569,34.748,200.576,37.775z"/>
		<path fill-rule="evenodd" clip-rule="evenodd" fill="#888888" d="M177.011,36.637c-0.426,1.872-0.853,3.744-1.278,5.616
			c-0.029,0.791,0.164,1.555,0.284,2.331c0.34,1.798,0.084,3.144-2.222,2.931c-1.295-1.51-2.589-3.02-3.884-4.53
			C172.278,40.869,174.645,38.753,177.011,36.637z"/>
		<path fill-rule="evenodd" clip-rule="evenodd" fill="#C1C1C1" d="M191.15,32.855c-2.156-0.457-4.312-0.914-6.469-1.371
			c1.891-0.883,3.781-1.768,5.671-2.652c0.911,0.686,1.823,1.372,2.734,2.058C193.329,32.419,192.67,33.062,191.15,32.855z"/>
		<path fill-rule="evenodd" clip-rule="evenodd" fill="#808080" d="M200.073,88.515c0.209,0.002,0.418,0.004,0.628,0.006
			c1.818,2.479,1.328,5.679,2.588,8.342c0.229,0.484-0.181,0.985-0.671,1.274c-1.117-0.479-2.234-0.957-3.352-1.436
			c-0.735,5.928-8.321,9.209-6.264,16.215c-0.874,0.438-1.748,0.875-2.622,1.312c-0.849,0.394-1.697,0.788-2.546,1.182
			c0.884-1.898,1.767-3.797,2.65-5.696c0.001,0-0.017-0.008-0.017-0.008c0.299-0.339,0.254-0.793,0.396-1.184
			c1.356-3.734,1.358-3.733-2.229-4.867c-1.997-3.534,0.608-6.207,1.957-8.938c0.902-1.825,2.354,0.435,3.617,0.37
			c0.819-0.594,1.312-1.397,1.477-2.335C196.124,90.252,197.804,89.092,200.073,88.515z"/>
		<path fill-rule="evenodd" clip-rule="evenodd" fill="#636363" d="M202.618,98.138c-3.646-2.606-2.683-6.131-1.918-9.616
			c0.433,0.214,0.864,0.428,1.296,0.642c0.797,3.179,1.594,6.358,2.39,9.537C203.797,98.513,203.207,98.325,202.618,98.138z"/>
		<path fill-rule="evenodd" clip-rule="evenodd" fill="#606060" d="M173.795,47.515c0.184-1.045,0.367-2.09,0.552-3.134
			c1.146-1.262,2.448-1.63,3.976-0.686c5.308,2.426,8.641-3.275,13.367-3.248c1.293,0.007,2.587-0.001,3.88-0.002
			c-2.565,1.277-5.131,2.554-7.695,3.831c-11.984,3.918-23.009,9.08-28.225,21.773c-0.443-1.686-0.886-3.371-1.33-5.056
			c1.919-1.936,3.721-4.01,5.786-5.776C167.239,52.536,170.556,50.071,173.795,47.515z"/>
		<path fill-rule="evenodd" clip-rule="evenodd" fill="#B9B9B9" d="M241.142,53.211c-0.48,0.638-0.962,1.276-1.443,1.915
			c-1.196-0.434-1.63,0.691-2.368,1.175c-2.697,1.768-4.953,1.753-6.45-0.071c-1.189-1.451-0.749-4.026,1.019-6.121
			c0.177-0.209,0.303-0.464,0.523-0.643c-0.203,0.212-0.442,0.399-0.626,0.617c-1.316,1.569-1.625,3.428-1.559,5.413
			c0.049,1.466-0.092,2.862-2.157,2.677c-3.549-3.094-3.533-6.959,0.045-11.187c1.57-0.275,2.998-0.693,4.311-1.778
			c1.361-1.125,3.217-1.146,4.968-1.124c2.331,0.028,3.647,1.185,3.945,3.507c0.109,0.856-0.021,1.807,0.842,2.404
			C241.841,51.068,241.491,52.14,241.142,53.211z"/>
		<path fill-rule="evenodd" clip-rule="evenodd" fill="#E3E3E3" d="M242.19,49.997c-3.417-6.218-8.435-3.936-13.292-2.504
			c-0.448-0.713-0.048-1.295,0.3-1.878c1.896-1.991,3.874-3.85,6.761-4.263c2.393-0.468,4.567-0.228,6.21,1.85
			c0.912,1.152,1.456,2.313,0.267,3.612C242.354,47.874,242.272,48.936,242.19,49.997z"/>
		<path fill-rule="evenodd" clip-rule="evenodd" fill="#505050" d="M242.436,46.813c-0.378-4.583-3.648-4.528-6.989-4.361
			c-0.687,0.255-1.569,0.565-1.949-0.159c-0.532-1.019,0.555-1.333,1.188-1.784c3.899-1.841,6.664,0.657,9.6,2.507
			C243.668,44.282,243.053,45.547,242.436,46.813z"/>
		<path fill-rule="evenodd" clip-rule="evenodd" fill="#BDBDBD" d="M200.073,88.515c-1.712,2.344-3.424,4.688-5.136,7.031
			c-0.559,0.114-1.02-0.125-1.395-0.479c-1.559-1.478-2.704-1.843-3.586,0.735c-0.68,1.987-2.094,2.051-3.542,0.555
			c-1.9-3.359-2.399-3.424-4.675-0.405c-0.737,0.979-1.382,2-2.799,1.532c-1.447-0.478-1.288-1.781-1.326-2.949
			c-0.049-1.466-0.077-2.939-1.278-4.041c-0.881,0.245-1.762,0.49-2.644,0.734c-0.069-0.387-0.326-1.004-0.179-1.124
			c1.267-1.031,2.535-2.661,3.938-2.806c3.65-0.376,7.369-0.088,11.061-0.065C192.331,87.988,196.612,84.561,200.073,88.515z"/>
		<path fill-rule="evenodd" clip-rule="evenodd" fill="#575757" d="M176.337,90.493c0.093,9.065,9.759-1.767,10.851,5.222
			c1.229,1.996-0.26,2.327-1.656,2.716c-1.053,0.63-0.275,1.828-0.809,2.622c-0.576,0.728-1.23,0.923-2.007,0.305
			c-1.267-0.432-2.532-0.863-3.798-1.294C178.058,96.874,177.197,93.684,176.337,90.493z"/>
		<path fill-rule="evenodd" clip-rule="evenodd" fill="#6B6B6B" d="M185.318,95.569c0.623,0.048,1.246,0.096,1.869,0.145
			c2.576-0.389,5.009-7.348,7.75-0.168c-0.224,2.062,4.649,1.73,2.26,4.81c-1.375-1.247-2.735-2.508-4.131-3.729
			c-0.432-0.378-0.958-0.646-1.441-0.965c-0.818,2.543-1.636,5.087-2.454,7.63c-0.089,1.156-0.98,1.214-1.435,0.6
			c-1.304-1.764-3.291-1.39-4.989-1.911c-0.02-0.208-0.03-0.416-0.031-0.624c0.427-0.379,0.853-0.757,1.279-1.136
			C184.88,98.797,182.896,96.557,185.318,95.569z"/>
		<path fill-rule="evenodd" clip-rule="evenodd" fill="#C8C8C8" d="M182.747,101.982c2.142,0.437,4.282,0.874,6.424,1.31
			c0.617-0.401,1.233-0.803,1.852-1.205c1.44,2.658,1.742,5.233-0.554,7.62C192.116,102.913,185.459,104.42,182.747,101.982z"/>
		<path fill-rule="evenodd" clip-rule="evenodd" fill="#5D5D5D" d="M178.908,58.996c3.031-0.821,6.062-1.643,9.094-2.464
			c3.579,0.674,7.158,1.349,10.736,2.023c0.495,1.44-0.395,2.171-1.444,2.824c-1.439,0.479-2.701-0.38-4.056-0.556
			c-6.678-0.864-12.567,0.837-17.62,5.308c-0.763,0.676-1.398,1.494-2.342,1.95c-0.315,0.062-0.626,0.062-0.937-0.006
			c-0.913-1.021-2.277-0.643-3.379-1.083c-0.295-0.12-0.546-0.299-0.765-0.527c0.12-1.486-1.751-3.375,0.874-4.357
			c2.619-0.494,5.096-1.323,7.234-2.996C177.116,58.479,178.005,58.24,178.908,58.996z"/>
		<path fill-rule="evenodd" clip-rule="evenodd" fill="#AAAAAA" d="M199.408,75.051c-7.033,4.688-14.286,8.416-23.106,5.275
			c-0.145-0.833-0.221-1.646,0.596-2.221c0.282-0.174,0.572-0.332,0.87-0.475c2.831-0.211,5.634,0.489,8.508-0.028
			c3.898-0.7,7.24-2.259,10.043-5.051c0.944-0.94,1.746-2.201,3.373-2.066c1.022,0.181,1.21,1.063,1.537,1.828
			C200.622,73.226,200.016,74.139,199.408,75.051z"/>
		<path fill-rule="evenodd" clip-rule="evenodd" fill="#626262" d="M201.229,72.312c-0.407-0.377-0.815-0.754-1.223-1.131
			c-2.347-1.977-0.485-4.321-0.567-6.488c0.723-0.709,1.854-2.96,1.969-3.915c1.269,0.294,2.537,0.588,3.806,0.881
			c2.539-0.379,3.422,1.204,2.44,4.373C208.203,70.88,201.85,68.664,201.229,72.312z"/>
		<path fill-rule="evenodd" clip-rule="evenodd" fill="#3F3F3F" d="M201.407,60.779c1.458,2.27,5.036,3.7,2.929,7.384
			c-1.208-1.335-2.415-2.671-3.622-4.007c-1.935-0.455-4.019-0.773-3.338-3.632c0.454-0.657,0.908-1.313,1.362-1.969
			C199.628,59.296,200.518,60.038,201.407,60.779z"/>
		<path fill-rule="evenodd" clip-rule="evenodd" fill="#9B9B9B" d="M207.653,66.033c-0.813-1.458-1.627-2.916-2.44-4.373
			c1.123-0.5,2.246-1,3.369-1.5C208.272,62.118,207.963,64.076,207.653,66.033z"/>
		<path fill-rule="evenodd" clip-rule="evenodd" fill="#E2E2E2" d="M228.765,57.799c1.006-2.938,1.622-6.111,3.19-8.711
			c0.735-1.22,3.305-1.335,5.043-1.951c0.18,0.754,0.36,1.509,0.54,2.263c-1.038-0.028-2.356-0.479-3.065-0.01
			c-2.885,1.909-5.326,4.381-0.459,6.584c1.467,0.664,3.768-0.514,5.686-0.848c-2.956,1.536-5.912,3.072-8.867,4.608
			C229.24,60.053,228.61,59.346,228.765,57.799z"/>
		<path fill-rule="evenodd" clip-rule="evenodd" fill="#8A8A8A" d="M228.765,57.799c0.689,0.645,1.378,1.29,2.067,1.935
			c0.725,0.389,1.449,0.778,2.174,1.167c-0.43,0.217-0.982,0.726-1.27,0.605c-2.205-0.929-5.575-1.443-6.303-3.092
			c-2.309-5.233-0.577-10.111,3.477-14.115c0.791,0.467,0.728,1.238,0.709,1.992c-0.24,0.401-0.48,0.802-0.721,1.203
			C225.677,50.887,226.131,54.329,228.765,57.799z"/>
		<path fill-rule="evenodd" clip-rule="evenodd" fill="#6D6D6D" d="M229.619,46.29c-0.236-0.664-0.473-1.328-0.709-1.992
			c1.925-1.263,3.85-2.526,5.775-3.79c0.253,0.648,0.507,1.295,0.76,1.943C233.504,43.731,231.562,45.011,229.619,46.29z"/>
		<path fill-rule="evenodd" clip-rule="evenodd" fill="#C3C3C3" d="M178.908,58.996c-3.093,1.521-4.892,6.276-9.571,3.83
			c-0.443-0.282-1.048-0.47-0.699-1.209c2.491-5.552,5.97-10.112,12.151-11.847c0.497-0.14,1.17,0.345,1.762,0.539
			C178.975,52.213,179.182,55.705,178.908,58.996z"/>
		<path fill-rule="evenodd" clip-rule="evenodd" fill="#5A5A5A" d="M168.61,66.071c0.242,0.01,0.483,0.021,0.726,0.032
			c0.739,1.022,2.144,0.329,2.961,1.15c0.113,0.078,0.227,0.153,0.342,0.228c1.017,0.852,0.357,1.829,0.217,2.769
			c-0.412,1.962,0.864,3.956-0.104,5.907c-0.324,0.67-0.773,1.121-1.598,0.915c-1.461-2.396-2.923-4.793-4.384-7.19
			C165.795,67.006,166.222,66.123,168.61,66.071z"/>
		<path fill-rule="evenodd" clip-rule="evenodd" fill="#7F7F7F" d="M168.61,66.071c-0.613,1.27-1.227,2.541-1.84,3.811
			c-0.667-0.778-2.059-1.917-1.882-2.273c1.048-2.099,2.46-4.015,3.75-5.992c0.232,0.403,0.465,0.807,0.698,1.209
			C169.095,63.907,168.853,64.989,168.61,66.071z"/>
		<path fill-rule="evenodd" clip-rule="evenodd" fill="#767676" d="M171.154,77.071c0.249-0.48,0.5-0.96,0.749-1.44
			c2.709-0.635,3.859,0.1,5.102,3.26c-0.234,0.478-0.469,0.957-0.703,1.435C174.586,79.241,172.87,78.156,171.154,77.071z"/>
		<path fill-rule="evenodd" clip-rule="evenodd" fill="#C3C3C3" d="M191.612,83.376c-1.858,0.67-2.656,1.204-3.423,1.162
			c-0.706-0.038-1.379-0.693-2.066-1.077c0.798-0.518,1.542-1.28,2.411-1.467C189.119,81.868,189.88,82.555,191.612,83.376z"/>
		<path fill-rule="evenodd" clip-rule="evenodd" fill="#6E6E6E" d="M191.15,32.855c0.646-0.655,1.29-1.311,1.937-1.966
			c0.455-0.362,0.911-0.725,1.366-1.087c-0.142,0.945,0.064,2.366-0.478,2.761c-4.931,3.598-9.992,7.018-15.015,10.49
			c-0.172-0.12-0.238-0.25-0.199-0.392c0.04-0.146,0.086-0.22,0.138-0.22C181.167,36.926,185.942,34.615,191.15,32.855z"/>
		<path fill-rule="evenodd" clip-rule="evenodd" fill="#373737" d="M178.899,42.442c-0.001,0.206,0.02,0.409,0.061,0.611
			c-0.213,0.214-0.426,0.428-0.639,0.642c-1.324,0.229-2.649,0.457-3.975,0.685c-0.332-0.715-0.663-1.431-0.994-2.146
			c0.793,0.006,1.586,0.013,2.38,0.02C176.788,42.316,177.844,42.378,178.899,42.442z"/>
		<path fill-rule="evenodd" clip-rule="evenodd" fill="#BCBCBC" d="M185.318,95.569c-0.218,1.614,2.43,4.043-1.323,4.652
			c-0.31-1.417-0.62-2.834-0.93-4.251C183.816,95.837,184.567,95.703,185.318,95.569z"/>
		<path fill-rule="evenodd" clip-rule="evenodd" fill="#F2F2F2" d="M171.784,69.863c0.285-0.794,0.57-1.588,0.854-2.383
			c6.816-7.402,14.805-10.635,24.737-6.957c1.112,1.21,2.225,2.421,3.338,3.632c-0.236,2.342-0.472,4.684-0.708,7.026
			c-5.966,6.856-13.333,9.632-22.328,7.672c-4.688-3.471-4.871-8.091-0.215-11.518c3.975-2.926,8.225-5.367,13.489-3.318
			c1.941,0.404,3.711,1.204,4.171,3.302c0.449,2.053-0.771,3.643-2.174,4.971c-1.655,1.565-2.874,1.259-3.799-0.893
			c-0.251-0.581-0.344-1.233-0.792-1.718c-0.826-0.893-1.847-1.016-2.926-0.613c-1.065,0.397-1.833,1.119-1.89,2.331
			c-0.052,1.106,0.619,1.75,1.563,2.177c2.675,1.209,7.879-0.457,9.34-2.994c1.578-2.739,0.935-4.419-2.416-6.303
			c-7.452-2.268-14.003,0.552-17.666,7.629c-0.438,0.845-0.89,1.999-1.92,1.54C170.774,72.704,171.593,71.149,171.784,69.863z"/>
		<path fill-rule="evenodd" clip-rule="evenodd" fill="#3A3A3A" d="M172.297,67.253c-0.969,0.485-1.938,0.97-2.905,1.455
			c-0.019-0.868-0.038-1.737-0.056-2.605c1.058-0.361,2.114-0.722,3.171-1.082C172.437,65.765,172.366,66.508,172.297,67.253z"/>
		<path fill-rule="evenodd" clip-rule="evenodd" fill="#C0C0C0" d="M191.697,64.826c-6.439-1.371-11.85,0.286-15.628,5.806
			c-2.09,3.053-0.907,5.865,1.608,8.223c-0.225,0.012-0.448,0.024-0.673,0.036c-1.701-1.086-3.401-2.173-5.102-3.259
			c-0.039-1.923-0.079-3.845-0.119-5.768c0.248,0.77,0.496,1.539,0.744,2.309c0.365-0.315,0.854-0.561,1.078-0.956
			c4.4-7.758,10.82-10.328,19.334-7.599C193.561,65.084,192.938,65.274,191.697,64.826z"/>
		<path fill-rule="evenodd" clip-rule="evenodd" fill="#CCCCCC" d="M191.697,64.826c0.414-0.403,0.829-0.807,1.243-1.209
			c2.993,1.688,4.108,4.127,2.266,7.175c-2.561,4.234-6.583,5.777-11.229,4.407c-1.291-0.381-2.987-2.855-2.796-4.109
			c0.475-3.097,3.117-4.333,6.182-4.325c2.44,0.006,3.781,1.144,3.627,3.752c-0.024,0.412,0.356,0.847,0.549,1.271
			c0.724-0.73,2.142-1.584,2.038-2.167C193.283,67.963,192.367,66.417,191.697,64.826z"/>
	</g>
</g>
<g id="Layer_3" display="none">
	<g display="inline" opacity="0.5">
		<path fill-rule="evenodd" clip-rule="evenodd" fill="#A4A4A4" d="M98.596,288.082c-17.255,0-34.51,0-51.765,0
			c-1.842-1.407-1.165-3.548-1.356-5.331c-0.363-3.376-1.951-5.878-4.588-7.772c-3.555-2.554-3.595-2.508-1.439-6.341
			c0.256-0.455,0.419-0.953,0.689-1.394c1.112-2.391,2.765-4.527,3.715-6.969c1.133-2.912,2.729-3.738,5.455-2.14
			c2.832,1.229,4.172-1.381,6.122-2.403c0.423-0.223,0.767-0.599,1.142-0.91c5.682-4.721,6.278-4.582,8.806,2.052
			c0.228,0.599,0.563,1.155,0.637,1.812c0.37,2.042,0.963,4.004,1.678,5.955c0.742,2.023,0.596,4.037-1.383,5.454
			c-2.71,2.272-3.868,5.303-3.802,8.747c0.029,1.508-0.332,3.46,2.016,3.962c1.99,0.424,3.368-0.217,4.208-2.073
			c3.439-3.225,3.949-7.037,2.19-11.23c-0.498-1.188-0.767-2.291,0.2-3.246c4.788-4.73,9.083-10.002,14.87-13.656
			c2.834,0.327,3.754,3.034,5.65,4.548c1.818,3.116,5.334,4.876,6.601,8.416c-0.614,5.152,0.069,10.177,1.038,15.228
			C99.736,283.174,100.646,285.833,98.596,288.082z"/>
		<path fill-rule="evenodd" clip-rule="evenodd" fill="#E3E3E3" d="M105.59,140.718c15.197,5.715,23.59,18.065,30.046,31.837
			c8.634,18.419,11.555,37.418,2.53,56.7c-4.153,8.871-11.546,14.472-20.513,17.762c-12.144,4.455-19.146,17.428-16.183,30.374
			c0.792,3.462,0.721,7.121,1.047,10.69c-0.523,0-1.046,0-1.569,0c-1.809-7.779-4.82-15.509-1.236-23.554
			c1.519-3.41,1.699-7.015,1.637-10.625c-0.037-2.159,0.133-4.076,1.971-5.438c6.5-2.793,13.624-4.042,19.887-7.546
			c1.205-0.293,1.858-1.286,2.607-2.14c0.437-0.614,1.096-0.919,1.763-1.215c1.965-0.742,3.424-2.027,4.274-3.953
			c0.211-0.474,0.524-0.896,0.84-1.307c0.566-0.797,1.191-1.561,1.746-2.369c0.188-0.248,0.372-0.506,0.546-0.766
			c0.156-0.265,0.323-0.525,0.495-0.78c0.165-0.254,0.32-0.516,0.463-0.782c0.14-0.264,0.282-0.528,0.422-0.793
			c0.132-0.265,0.257-0.534,0.373-0.809c0.171-0.409,0.337-0.821,0.493-1.237c0.099-0.28,0.198-0.56,0.296-0.841
			c0.173-0.417,0.357-0.826,0.529-1.244c0.103-0.288,0.201-0.576,0.293-0.87c0.179-0.604,0.329-1.212,0.451-1.833
			c0.062-0.325,0.117-0.646,0.165-0.977c0.071-0.877,0.366-1.693,0.593-2.536c0.101-0.367,0.165-0.73,0.186-1.114
			c0.003-1.771-0.525-3.567,0.36-5.286c0.102-2.858,0.659-5.676,0.223-8.516c-0.673-3.367-1.112-6.773-1.363-10.211
			c-1.481-8.07-4.066-15.736-8.214-22.817c-0.554-0.747-1.028-1.565-1.549-2.348c-0.195-0.3-0.387-0.607-0.577-0.915
			c-0.502-0.743-0.966-1.511-1.388-2.321c-2.325-4.332-5.798-7.745-8.958-11.406c-2.271-2.631-5.235-4.185-8.381-5.454
			C108.439,144.312,105.963,143.362,105.59,140.718z"/>
		<path fill-rule="evenodd" clip-rule="evenodd" fill="#6D6D6D" d="M104.87,248.788c-2.132,1.001-2.362,2.917-2.415,4.946
			c-0.299,11.458-4.477,22.745-1.506,34.348c-0.784,0-1.568,0-2.353,0c-0.778-7.843-1.557-15.687-2.335-23.529
			c0.861-0.708,0.881-1.884,1.521-2.743c0.366-3.866-0.224-7.817,1.323-11.533c1.57-1.438,2.888-3.39,5.5-2.621
			C105.013,247.959,105.101,248.337,104.87,248.788z"/>
		<path fill-rule="evenodd" clip-rule="evenodd" fill="#E3E3E3" d="M32.713,288.082c-1.051-8.377,2.197-15.658,5.436-23.079
			c1.429-3.274,4.586-8.853-3.934-7.603c-0.503-0.875-0.27-1.69,0.197-2.493c2.137-1.896,4.86-2.863,7.133-4.604
			c1.402-1.074,3.37-3.042,5.433-1.203c1.926,1.717,0.708,3.798-0.085,5.677c-1.979,3.513-3.782,7.144-5.751,10.673
			c-0.124,0.349-0.255,0.706-0.384,1.057c-0.396,0.613-0.699,1.281-1.068,1.92c-0.639,1.281-1.725,2.35-1.858,3.872
			c0.072,0.8,0,1.561-0.497,2.232c-0.237,0.336-0.456,0.678-0.658,1.04c-1.377,2.5-1.725,5.185-1.886,8.003
			c-0.085,1.485,0.357,3.374-1.293,4.509C33.236,288.082,32.975,288.082,32.713,288.082z"/>
		<path fill-rule="evenodd" clip-rule="evenodd" fill="#BEBEBE" d="M44.479,288.082c-2.876,0-5.752,0-8.627,0
			c-2.357-4.058-0.9-7.968,0.469-11.875c0.311-0.375,0.682-0.666,1.127-0.866c1.431-0.204,2.86-0.385,4.255,0.253
			C45.583,279.614,46.557,284.032,44.479,288.082z"/>
		<path fill-rule="evenodd" clip-rule="evenodd" fill="#4E4E4E" d="M44.479,288.082c-0.084-4.11-0.167-8.222-3.232-11.495
			c-1.213-1.11-2.497-0.854-3.801-0.192l0.034,0.018c-2.529,0.504-2.156-0.923-1.631-2.45l-0.001,0.002
			c0.748-0.614,0.034-1.728,0.798-2.336c0.673-1.343,1.347-2.686,2.021-4.029c0.818-0.183,0.646-1.062,1.07-1.523l-0.017,0.018
			c0.377-0.506,0.898-1.108,1.485-0.686c0.816,0.588,0.707,1.465,0.104,2.247c-1.797,2.674-2.696,4.682,1.092,7.037
			c4.77,2.967,4.752,8.312,4.433,13.391C46.047,288.082,45.263,288.082,44.479,288.082z"/>
		<path fill-rule="evenodd" clip-rule="evenodd" fill="#717171" d="M35.848,273.962c0.543,0.816,1.087,1.633,1.631,2.45
			c-0.543,3.89-1.085,7.78-1.628,11.67c-0.785,0-1.569,0-2.353,0C33.61,283.264,33.256,278.367,35.848,273.962z"/>
		<path fill-rule="evenodd" clip-rule="evenodd" fill="#666666" d="M25.635,220.672c-5.055-8.476-5.917-17.45-3.193-26.851
			c2.339,1.951,0.533,4.379,0.615,6.551c0.049,1.316,0.122,2.756-0.221,4.108c0.283-1.252,0.092-2.527,0.197-3.795
			c1.592-19.071,11.633-33.274,25.956-44.951c3.909-3.187,6.292-2.774,9.138,1.244c1.114,1.572,2.385,3.07,3.207,4.862
			c2.911,7.926,3.951,16.256,2,24.297c-1.231,5.074-4.159,9.934-7.054,14.558c-4.598,7.344-10.192,13.793-16.455,19.726
			c-1.353,1.281-2.293,2.909-3.063,4.662c-1.361,3.103-3.033,3.273-5.697,1.046C29.076,224.469,28.29,221.641,25.635,220.672z"/>
		<path fill-rule="evenodd" clip-rule="evenodd" fill="#464646" d="M25.635,220.672c0.062-1.007,0.124-2.014,0.186-3.021
			c0.346,0.113,0.913,0.13,1.008,0.352c5.952,13.783,10.104,3.209,14.456-1.165c7.594-7.634,13.441-16.525,18.486-26.028
			c5.004-9.427,2.173-18.762,0.358-28.173c-0.651-1.462-0.538-2.65,1.167-3.264c0.671-0.103,1.305,0.082,1.923,0.292
			c1.052,0.654,1.581,1.704,1.944,2.829c3.175,9.855,3.475,19.523-0.462,29.419c-4.403,11.068-11.513,20.028-19.774,28.298
			c-2.403,2.404-4.971,4.81-3.831,8.772c0.336,1.048,0.921,1.984,1.5,2.928c0.486,0.813,1.31,1.386,1.626,2.324
			c0.1,1.184,0.608,2.408-0.375,3.467c-0.689,0.538-1.494,0.532-2.303,0.479c-1.526-0.133-1.661-1.41-2.033-2.485
			c-1.159-1.179-2.214-2.488-3.756-3.232C31.757,229.068,27.826,225.616,25.635,220.672z"/>
		<path fill-rule="evenodd" clip-rule="evenodd" fill="#4C4C4C" d="M61.663,160.257c-0.512,0.793-1.023,1.586-1.535,2.379
			c-3.691-8.558-8.25-9.065-14.695-2.28c-13.208,13.907-23.75,28.729-20.676,49.39c0.123,0.822-0.585,1.769-0.906,2.658
			c-0.435-0.88-1.219-1.749-1.245-2.641c-0.152-5.312-0.129-10.628-0.165-15.942c3.353-15.999,13.342-27.848,24.401-39.027
			c1.018-0.548,2.036-1.096,3.054-1.645c1.527-0.801,2.569-2.209,3.974-3.162l-0.032,0.025c0.48-0.431,1.383-0.279,1.559-1.131
			c0.254-0.159,0.509-0.317,0.764-0.475c2.533-0.321,2.174,1.986,2.969,3.25c0.277,1.551,1.229,2.698,2.285,3.799
			c0.745,0.86,1.465,1.717,1.443,2.947c-0.001,0.406-0.105,0.78-0.289,1.135C62.353,159.884,62.048,160.122,61.663,160.257z"/>
		<path fill-rule="evenodd" clip-rule="evenodd" fill="#909090" d="M34.971,255.875c-0.251,0.509-0.503,1.018-0.755,1.525
			c0,0,0.034,0.013,0.034,0.013c-1.963,1.538-4.423,2.289-6.292,3.977c-3.034-0.258-2.095-2.027-1.209-3.511
			c2.444-4.092,5.006-8.114,7.522-12.163c0.939,0.142,1.798,0.44,2.4,1.232c0.875,1.692-0.277,2.843-1.169,4
			c-0.596,0.773-1.448,1.369-1.043,2.52C34.738,254.241,34.459,255.142,34.971,255.875z"/>
		<path fill-rule="evenodd" clip-rule="evenodd" fill="#787878" d="M35.682,247.222c-0.47-0.502-0.941-1.004-1.411-1.506
			l-0.004,0.011c0.522-0.439,0.352-1.185,0.742-1.683c1.412-3.786,6.666-7.324,0.745-11.581c1.326,0.767,2.652,1.533,3.979,2.301
			c1.025,0.461-0.414,2.604,1.623,2.375c0.777-0.023,1.555-0.048,2.332-0.071c0.269,0.28,0.413,0.615,0.43,1.003
			c-1.506,2.96-3.913,5.271-5.779,7.974C37.727,246.931,36.787,247.322,35.682,247.222z"/>
		<path fill-rule="evenodd" clip-rule="evenodd" fill="#E3E3E3" d="M27.958,261.39c2.097-1.325,4.194-2.65,6.292-3.976
			C32.152,258.738,30.055,260.064,27.958,261.39z"/>
		<path fill-rule="evenodd" clip-rule="evenodd" fill="#909090" d="M35.009,244.044c-0.247,0.561-0.495,1.122-0.742,1.683
			C34.515,245.166,34.762,244.604,35.009,244.044z"/>
		<path fill-rule="evenodd" clip-rule="evenodd" fill="#606060" d="M56.237,153.183c-0.025-1.593-0.05-3.185-0.075-4.777
			c14.613-10.28,30.144-15.396,47.812-8.508c0.499,0.391,1.261,0.245,1.669,0.821c0,0-0.053-0.001-0.053-0.001
			c1.831,1.286,3.662,2.573,5.492,3.859c-1.03,2.416-3.056,3.152-5.453,3.245c-7.598-7.767-16.804-7.773-26.451-5.326
			C70.868,144.605,63.445,148.677,56.237,153.183z"/>
		<path fill-rule="evenodd" clip-rule="evenodd" fill="#606060" d="M53.872,149.987c-1.325,1.054-2.649,2.108-3.974,3.162
			C51.222,152.096,52.547,151.042,53.872,149.987z"/>
		<path fill-rule="evenodd" clip-rule="evenodd" fill="#E3E3E3" d="M105.643,140.719c-0.557-0.273-1.112-0.547-1.669-0.821
			C104.53,140.172,105.086,140.446,105.643,140.719z"/>
		<path fill-rule="evenodd" clip-rule="evenodd" fill="#606060" d="M55.398,148.881c-0.52,0.377-1.039,0.754-1.559,1.131
			C54.359,149.635,54.878,149.258,55.398,148.881z"/>
		<path fill-rule="evenodd" clip-rule="evenodd" fill="#4D4D4D" d="M86.052,253.605c-4.017,3.872-7.908,7.889-12.094,11.569
			c-2.984,2.622-0.411,5.335-0.687,7.973c-0.34,3.253-0.816,6.471-3.711,8.636c-0.893,0.363-1.421-0.118-1.858-0.794
			c-0.893-1.215-0.235-2.444-0.004-3.668c0.385-2.038,0.056-3.814-1.813-5.053c-0.854-0.561-1.521-1.204-1.18-2.352
			c3.755-3.849-0.237-7.709,0.017-11.562c0.174-0.789,0.543-1.424,1.341-1.715c1.117-0.268,1.891,0.204,2.655,1.034
			c2.71,2.944,3.533,2.895,6.145-0.168c0.498-0.582,0.835-1.285,1.388-1.853c3.302-0.377,5.081-3.034,7.395-4.886
			c1.196-0.294,2.413-0.954,3.491,0.268C87.695,252.282,87.183,253.075,86.052,253.605z"/>
		<path fill-rule="evenodd" clip-rule="evenodd" fill="#4B4B4B" d="M66.629,257.457c-0.635,0.299-1.271,0.598-1.907,0.896
			c-1.863-7.432-5.126-4.535-8.775-1.359c-2.138,1.861-4.273,4.176-7.635,3.71c-0.064-1.814-1.408-3.268-1.443-5.083
			c0.269-0.817,0.871-1.188,1.696-1.235c0.498,0.052,1.008,0.137,1.518,0.166c0.161-0.006,0.326-0.002,0.489-0.009
			c0.325-0.031,0.635-0.111,0.934-0.276c2.853-1.831,5.094-4.488,8.243-5.948c4.5-1.666,4.649-1.588,6.661,2.682
			c0.538,1.144,1.768,1.959,1.616,3.437C68.102,255.698,67.698,256.731,66.629,257.457z"/>
		<path fill-rule="evenodd" clip-rule="evenodd" fill="#5C5C5C" d="M68.764,280.179c0.266,0.535,0.531,1.069,0.797,1.605
			c-1.927,2.667-5.109,3.521-6.935,1.285c-3.817-4.678-1.049-9.126,2.08-13.151c0.819,0.296,1.639,0.592,2.459,0.889
			c0.977,0.899,0.597,1.85,0.124,2.821C66.034,276.199,66.525,278.388,68.764,280.179z"/>
		<path fill-rule="evenodd" clip-rule="evenodd" fill="#505050" d="M98.578,263.072c0.626,0.961,1.358,1.88,1.77,2.927
			c0.065,0.165-1.776,1.433-1.951,1.281c-0.858-0.74-1.45-1.788-2.136-2.728c-1.889-2.324-3.778-4.648-5.667-6.973
			c-0.181-1.108,0.475-1.608,1.393-1.921C96.467,256.101,97.923,259.229,98.578,263.072z"/>
		<path fill-rule="evenodd" clip-rule="evenodd" fill="#6E6E6E" d="M47.527,255.158c0.261,1.849,0.523,3.697,0.785,5.546
			c-4.822-3.76-3.008,2.536-4.917,3.389c-1.022,0.456-1.412,2.329-2.087,3.562c-0.53-0.521-1.06-1.04-1.589-1.562
			c1.81-3.658,3.621-7.315,5.431-10.973c0.507-0.389,0.75-1.157,1.573-1.09C47.236,254.23,47.515,254.6,47.527,255.158z"/>
		<path fill-rule="evenodd" clip-rule="evenodd" fill="#696969" d="M92.255,256.736c-0.553,0.281-1.107,0.562-1.661,0.844
			c-1.515-1.325-3.028-2.65-4.542-3.975c0.229-0.775,0.46-1.551,0.689-2.326c0.253-0.371,0.598-0.613,1.033-0.729
			C91.789,251.74,92.941,253.33,92.255,256.736z"/>
		<path fill-rule="evenodd" clip-rule="evenodd" fill="#6D6D6D" d="M104.87,248.788c0-0.242,0-0.484,0-0.727
			c-1.243-1.235-2.551-0.037-3.825-0.104c-1.418-0.076-2.732-0.438-3.328-1.881c-0.65-1.576,0.165-2.878,1.436-3.489
			c2.366-1.139,4.07-3.037,6.039-4.605c4.624-0.06,6.884-3.254,5.555-7.94c-0.283-0.997-0.788-1.92-0.75-3.008
			c0.094-2.733,2.23-3.957,4.57-2.543c1.002,0.605,1.699,1.617,2.729,2.217c3.089,1.797,4.98,1.349,6.778-1.745
			c1.047-1.802,2.27-3.511,3.01-5.485c1.334-3.562,4.529-4.524,7.731-5.145c2.286-0.443,3.584,1.094,4.124,3.264
			c0.056,1.915,0.277,3.852-0.716,5.62c-0.232,0.712-0.657,1.356-0.848,2.088c-0.176,0.516-0.505,0.954-0.775,1.422
			c-0.375,0.594-0.71,1.217-1.125,1.792c-0.987,1.868-2.491,3.401-3.405,5.329c-1.173,1.633-2.593,2.895-4.452,3.754
			c-1.756,0.812-3.134,2.078-2.882,4.325C118.726,245.989,112.082,248.211,104.87,248.788z"/>
		<path fill-rule="evenodd" clip-rule="evenodd" fill="#464646" d="M105.627,146.885c1.818-0.769,3.636-1.538,5.455-2.307
			c7.498,4.323,12.921,10.657,17.384,17.923c0.252,0.343,0.338,0.725,0.259,1.142c-0.269,0.846-0.885,1.303-1.706,1.52
			c-2.473-0.077-3.368-2.11-4.55-3.752c-2.657-3.69-5.436-7.258-9.274-9.828c-1.402-0.939-2.785-1.968-4.65-1.331
			c-3.301,0.803-6.054,2.029-7.506,5.613c-0.724,1.786-2.353,3.366-3.618,5c-5.473,7.068-6.75,15.278-6.577,23.877
			c0.055,2.759-0.241,5.056-3.86,4.813c-0.454-0.074-0.863-0.223-1.257-0.438c-1.316-0.878-1.369-2.28-1.522-3.632
			c-1.286-14.599,3.911-26.628,14.677-36.332C100.677,147.534,102.508,145.012,105.627,146.885z"/>
		<path fill-rule="evenodd" clip-rule="evenodd" fill="#5E5E5E" d="M126.843,164.131c0.482-0.277,0.964-0.553,1.446-0.83
			c0.904,0.196,1.159,1.083,1.734,1.628l-0.025-0.035c0.538,0.805,0.943,1.697,1.607,2.417c4.405,7.216,7.121,15.055,8.614,23.345
			c0.588,3.46,0.79,6.979,1.58,10.408c0.006,3.364,0.013,6.729,0.02,10.093c-1.166,1.741,0.136,3.845-0.826,5.616l0.034-0.075
			c-1.007,0.856,0.022,2.266-0.857,3.156l0.004-0.01c-0.865,0.92,0.033,2.257-0.757,3.193l0.023-0.058
			c-0.533,0.426-0.419,1.161-0.796,1.662l0.043-0.106c-0.856,0.59-0.146,1.748-0.865,2.388l0.008-0.02
			c-0.489,0.437-0.369,1.159-0.771,1.637l0.04-0.072c-0.542,0.396-0.396,1.154-0.843,1.602l0.016-0.023
			c-0.753,1.083-1.679,2.036-2.384,3.155c-0.241,0.258-0.483,0.515-0.725,0.771c-0.92,0.504-1.622,0.562-1.632-0.797
			c1.045-1.83,2.092-3.661,3.137-5.491c0.482-0.412,0.303-1.157,0.791-1.565c0.26-0.263,0.52-0.524,0.779-0.787
			c0.479-0.414,0.304-1.156,0.785-1.57c0.264-2.09,0.528-4.181,0.792-6.271c-1.867-3.787-1.188-7.625-0.391-11.53
			c0.747-3.657,0.432-7.216-1.623-10.527c-0.756-1.22-0.584-2.789-0.841-4.187c-0.078-0.385-0.152-0.78-0.23-1.165
			c-0.261-1.092-0.407-2.214-0.561-3.322c-0.283-1.694-0.806-3.326-1.53-4.887c-0.213-0.428-0.412-0.871-0.626-1.304
			c-0.139-0.275-0.276-0.557-0.413-0.835c-0.195-0.415-0.393-0.832-0.586-1.251c-0.13-0.277-0.247-0.561-0.352-0.852
			c-0.17-0.439-0.3-0.889-0.448-1.337c-0.109-0.306-0.207-0.611-0.299-0.926c-0.213-0.643-0.352-1.299-0.539-1.951
			c-0.625-2.082-1.781-3.919-2.62-5.896C126.277,166.39,125.445,165.227,126.843,164.131z"/>
		<path fill-rule="evenodd" clip-rule="evenodd" fill="#636363" d="M131.53,233.178c0.544,0.266,1.088,0.531,1.632,0.797
			c-1.61,1.819-3.22,3.639-4.831,5.457c-0.343,0.549-1.097,0.308-1.485,0.771c-0.705,0.574-1.41,1.148-2.114,1.723
			C121.873,235.026,129.468,236.251,131.53,233.178z"/>
		<path fill-rule="evenodd" clip-rule="evenodd" fill="#636363" d="M141.8,201.065c-0.527-3.47-1.054-6.938-1.581-10.408
			C140.746,194.127,141.272,197.596,141.8,201.065z"/>
		<path fill-rule="evenodd" clip-rule="evenodd" fill="#636363" d="M140.993,216.774c0.275-1.872,0.55-3.744,0.826-5.616
			C141.543,213.03,141.269,214.902,140.993,216.774z"/>
		<path fill-rule="evenodd" clip-rule="evenodd" fill="#636363" d="M133.888,233.203c0.794-1.052,1.589-2.104,2.383-3.155
			C135.477,231.1,134.683,232.151,133.888,233.203z"/>
		<path fill-rule="evenodd" clip-rule="evenodd" fill="#6B6B6B" d="M130.023,164.93c-0.577-0.543-1.155-1.085-1.733-1.628
			c0.058-0.268,0.116-0.534,0.175-0.801C128.985,163.31,129.504,164.12,130.023,164.93z"/>
		<path fill-rule="evenodd" clip-rule="evenodd" fill="#6B6B6B" d="M131.606,167.312c-0.536-0.806-1.071-1.611-1.607-2.417
			C130.535,165.701,131.07,166.507,131.606,167.312z"/>
		<path fill-rule="evenodd" clip-rule="evenodd" fill="#636363" d="M140.17,219.855c0.286-1.052,0.571-2.104,0.857-3.156
			C140.741,217.751,140.456,218.804,140.17,219.855z"/>
		<path fill-rule="evenodd" clip-rule="evenodd" fill="#636363" d="M139.417,223.039c0.252-1.064,0.504-2.129,0.756-3.193
			C139.921,220.91,139.668,221.975,139.417,223.039z"/>
		<path fill-rule="evenodd" clip-rule="evenodd" fill="#636363" d="M137.822,226.925c0.289-0.796,0.577-1.591,0.866-2.388
			C138.399,225.333,138.11,226.129,137.822,226.925z"/>
		<path fill-rule="evenodd" clip-rule="evenodd" fill="#636363" d="M136.256,230.071c0.281-0.534,0.562-1.067,0.843-1.602
			C136.818,229.003,136.537,229.537,136.256,230.071z"/>
		<path fill-rule="evenodd" clip-rule="evenodd" fill="#636363" d="M137.06,228.542c0.256-0.545,0.513-1.091,0.771-1.637
			C137.573,227.451,137.316,227.997,137.06,228.542z"/>
		<path fill-rule="evenodd" clip-rule="evenodd" fill="#6D6D6D" d="M126.847,240.202c0.495-0.257,0.99-0.514,1.486-0.771
			C127.837,239.688,127.342,239.945,126.847,240.202z"/>
		<path fill-rule="evenodd" clip-rule="evenodd" fill="#636363" d="M138.644,224.644c0.265-0.554,0.531-1.108,0.796-1.662
			C139.174,223.535,138.909,224.089,138.644,224.644z"/>
		<path fill-rule="evenodd" clip-rule="evenodd" fill="#4F4F4F" d="M105.693,239.477c-0.828,0.804-1.659,1.604-2.482,2.412
			c-1.197,1.176-4.196,0.961-3.648,3.259c0.509,2.139,3.082,1.08,4.733,1.476c0.863,0.206,1.592,0.476,0.574,1.438
			c-1.593,0.806-3.187,1.612-4.78,2.419c-0.523,0.29-1.011,0.651-1.615,0.784c-2.04,0.137-4.139,0.54-5.717-1.309
			c-1.858-1.896,0.097-4.18-0.632-6.194c0.229-1.537,1.497-1.915,2.672-2.501c11.135-5.552,14.076-16.866,7.145-27.454
			c-1.278-1.533-2.503-3.037-2.414-5.207c0.114-2.813,2.087-3.954,4.503-2.535c5.646,3.318,9.271,12.723,7.125,18.774
			c-0.564,1.591-0.235,3.069-0.109,4.618C111.458,234.496,109.635,237.864,105.693,239.477z"/>
		<path fill-rule="evenodd" clip-rule="evenodd" fill="#B6B6B6" d="M99.36,249.757c0.244,0.241,0.487,0.482,0.73,0.724
			c-0.504,4.197-1.008,8.395-1.512,12.592c-2.107-2.111-4.215-4.225-6.323-6.336c-1.564-1.832-3.126-3.665-4.69-5.498
			c-1.779-2.712,0.543-2.808,1.999-2.645C92.829,248.958,96.143,248.984,99.36,249.757z"/>
		<path fill-rule="evenodd" clip-rule="evenodd" fill="#707070" d="M46.79,254.356c-0.547,0.255-1.093,0.509-1.64,0.764
			c0.205-1.677,2.527-3.427,0.693-4.803c-0.709-0.532-3.106,0.961-4.608,1.766c-2.148,1.15-4.181,2.518-6.263,3.792
			c-0.462-0.463-0.923-0.926-1.384-1.388c-0.127-1.382,0.719-2.144,1.607-3.081c2.875-3.034,6.438-5.08,9.943-7.18
			c2.675-1.603,4.872-0.665,5.705,2.274c0.631,2.226,1.313,4.521,0.412,6.861c-0.226,0.37-0.531,0.674-0.898,0.902
			C49.19,254.865,47.969,253.812,46.79,254.356z"/>
		<path fill-rule="evenodd" clip-rule="evenodd" fill="#717171" d="M36.645,271.628c-0.266,0.778-0.532,1.557-0.798,2.336
			C36.113,273.185,36.379,272.406,36.645,271.628z"/>
		<path fill-rule="evenodd" clip-rule="evenodd" fill="#6E6E6E" d="M39.735,266.075c-0.356,0.508-0.712,1.016-1.069,1.523
			C39.022,267.091,39.378,266.583,39.735,266.075z"/>
		<path fill-rule="evenodd" clip-rule="evenodd" fill="#717171" d="M37.445,276.395c1.32-0.995,2.594-1.081,3.801,0.191
			C39.979,276.522,38.712,276.458,37.445,276.395z"/>
		<path fill-rule="evenodd" clip-rule="evenodd" fill="#DEDEDE" d="M35.879,205.019c-1.852,1.546-3.889,3.896-6.303,2.04
			c-2.346-1.804-0.444-4.482,0.088-6.764c3.474-4.56,7.021-9.026,13.121-10.21c4.079,1.224,4.178,1.683,1.825,5.066
			C42.078,198.791,39.402,202.271,35.879,205.019z"/>
		<path fill-rule="evenodd" clip-rule="evenodd" fill="#4D4D4D" d="M37.426,188.478c-2.333-1.611-1.113-3.17,0.228-4.482
			c3.884-3.8,7.706-8.215,13.96-6.479c2.764,0.767,2.027,3.63,1.558,5.745c-1.027,4.624-1.587,9.629-7.227,11.346
			c-0.629-1.394,0.434-2.741,0.096-4.128c0.033-0.724,0.278-1.367,0.739-1.935c0.614-0.663,0.854-1.497,1.068-2.338
			c-0.445-2.719-2.21-2.317-4.036-1.754c-1.596,0.753-2.466,2.371-3.909,3.317C39.13,188.194,38.359,188.622,37.426,188.478z"/>
		<path fill-rule="evenodd" clip-rule="evenodd" fill="#A0A0A0" d="M37.426,188.478c0.439-0.592,0.879-1.185,1.318-1.776
			c0.348,0.003,0.695,0.021,1.042,0.059c1.898-0.002,2.745-1.146,3.083-2.842c-0.023-0.347-0.037-0.694-0.042-1.042
			c1.953-0.928,4.018-2.405,6.084-0.834c1.665,1.267,1.17,3.214,0.313,4.929c-2.809,0.576-3.354,4.26-6.328,4.61
			c-4.411,2.904-8.822,5.81-13.232,8.714C30.877,195.453,34.896,192.454,37.426,188.478z"/>
		<path fill-rule="evenodd" clip-rule="evenodd" fill="#BDBDBD" d="M42.896,191.581c1.188-1.829,2.329-3.692,3.588-5.472
			c0.533-0.753,1.315-1.33,1.984-1.987c0.251,0.949,0.503,1.899,0.755,2.849c-0.27,0.771-0.54,1.544-0.81,2.315
			c-0.522,0.377-0.3,1.122-0.757,1.532c-0.57,1.264-1.141,2.527-1.711,3.79c-3.246,3.576-5.381,8.226-10.066,10.41
			c2.636-3.221,5.325-6.4,7.883-9.682C44.89,193.89,45.689,192.251,42.896,191.581z"/>
		<path fill-rule="evenodd" clip-rule="evenodd" fill="#9A9A9A" d="M104.835,213.629c5.697,16.235,2.933,23.462-11.686,30.55
			c-0.097,2.87-2.698,2.476-4.355,3.293c-1.904,0.366-3.823,0.146-5.719,0.225c-0.438-0.005-0.887-0.008-1.339-0.004
			c-12.005-1.251-23.517-4.316-34.513-9.304c-1.953-0.886-3.326-2.544-5.1-3.659c-0.509-0.515-1.019-1.03-1.529-1.546
			c-0.651-0.705-0.985-1.628-1.61-2.351c-2.185-4.903,0.555-8.07,3.743-11.278c12.31-12.387,23.346-25.568,22.678-44.464
			c-0.167-4.72-1.867-9.386-2.861-14.077c-0.524-0.389-0.332-1.148-0.81-1.561v0c-0.73-1.072-1.577-2.054-2.39-3.062
			c-1.036-1.07-2.072-2.14-3.108-3.209c5.675-11.805,39.511-18.42,49.257-9.672c1.355,1.216,0.936,2.218,0.133,3.374
			c-14.454,8.784-20.361,21.908-19.536,38.454c0.781,0.924-0.098,2.231,0.727,3.146l-0.005,0.008c1.333,1.104,2.251,2.47,2.895,4.09
			c1.852,4.666,5.039,8.435,8.083,12.356C100.082,207.889,102.579,210.661,104.835,213.629z"/>
		<path fill-rule="evenodd" clip-rule="evenodd" fill="#585858" d="M42.124,234.729c12.769,5.831,25.862,10.557,39.993,11.753
			c0.756,0.938,2.919,1.258,1.401,3.2c-0.695,0.486-1.38,0.984-2.311,0.793c-6.192-0.83-12.478-1.608-18.357-3.436
			c-5.82-1.81-12.189-2.042-17.479-5.524c-0.935-1.061-1.934-2.092-1.649-3.695c-0.008-0.251-0.019-0.502-0.035-0.753
			C43.167,236.288,42.646,235.509,42.124,234.729z"/>
		<path fill-rule="evenodd" clip-rule="evenodd" fill="#585858" d="M41.355,237.139c-2.763,0.726-0.865-1.731-1.622-2.376
			C40.274,235.555,40.815,236.347,41.355,237.139z"/>
		<path fill-rule="evenodd" clip-rule="evenodd" fill="#585858" d="M38.985,230.833c0.537,0.783,1.073,1.567,1.609,2.351
			C40.059,232.4,39.522,231.616,38.985,230.833z"/>
		<path fill-rule="evenodd" clip-rule="evenodd" fill="#666666" d="M61.735,159.453c0.27,0.52,0.54,1.041,0.809,1.561
			c-0.293-0.252-0.587-0.505-0.881-0.757C61.688,159.989,61.711,159.721,61.735,159.453z"/>
		<path fill-rule="evenodd" clip-rule="evenodd" fill="#666666" d="M59.345,156.392c0.797,1.021,1.594,2.041,2.39,3.062
			C60.939,158.433,60.142,157.413,59.345,156.392z"/>
		<path fill-rule="evenodd" clip-rule="evenodd" fill="#BCBCBC" d="M43.723,237.82c0.788,0.464,1.575,0.927,2.363,1.391
			c1.75,1.903,4.188,2.468,6.484,3.284c2.184,0.776,4.183,1.874,6.215,2.985c2.883,1.578,2.969,3.07,0.621,5.077
			c-2.642,2.261-5.284,4.522-7.925,6.784c-0.48,0.664-0.962,0.673-1.444,0.002l0.081,0.08c-0.829-1.247-1.202-2.516-0.181-3.851
			c-0.429-2.72,0.599-6.894-2.147-7.585c-2.073-0.521-5.08,2.279-7.544,3.804c-2.306,1.426-4.446,3.118-6.659,4.694
			c-3.412-3.608,2.363-4.564,2.097-7.265C37.877,243.673,39.375,239.527,43.723,237.82z"/>
		<path fill-rule="evenodd" clip-rule="evenodd" fill="#BCBCBC" d="M66.629,257.457c-0.088-0.973-0.176-1.945-0.264-2.918
			c-1.052-6.074,0.479-7.352,6.361-5.735c1.939,0.532,3.79,1.628,6.014,1.271c0.883-0.143,2.016,0.333,2.419,1.569
			c0.4,1.228-0.355,2.13-1.023,2.708c-1.104,0.954-1.943,2.038-2.68,3.25C73.808,260.479,70.056,271.099,66.629,257.457z"/>
		<path fill-rule="evenodd" clip-rule="evenodd" fill="#B6B6B6" d="M77.456,257.602c-0.823-2.194,4.054-5.274,0.991-5.513
			c-3.709-0.289-10.417-8.376-12.082,2.449c-1.597-2.59-1.705-7.783-6.959-3.981c0.699-5.208-3.725-5.867-6.866-7.376
			c-2.321-1.115-4.992-1.498-6.454-3.969c11.166,5.236,22.942,8.267,35.154,9.719c0.449,0.301,0.962,0.28,1.474,0.335
			c0.91,0.097,2.222-0.813,2.592,0.728c0.249,1.035-0.898,1.427-1.479,2.065C81.704,253.906,79.58,255.754,77.456,257.602z"/>
		<path fill-rule="evenodd" clip-rule="evenodd" fill="#A2A2A2" d="M68.764,280.179c-1.37,0.893-3.226,2.572-4.21,0.378
			c-1.641-3.654-0.273-7.031,2.612-9.75C74.205,272.82,68.913,276.938,68.764,280.179z"/>
		<path fill-rule="evenodd" clip-rule="evenodd" fill="#6D6D6D" d="M83.827,252.059c1.651-3.121-1.537-2.241-2.587-3.128
			c0.833-0.061,1.666-0.12,2.499-0.181c3.127-1.374,6.252-2.581,9.347,0.074c2.091,0.311,4.183,0.621,6.274,0.932
			c-3.884,0.87-8.217-1.829-11.794,1.482c-0.274,0.014-0.549,0.027-0.823,0.041C85.77,251.539,84.799,251.799,83.827,252.059z"/>
		<path fill-rule="evenodd" clip-rule="evenodd" fill="#434343" d="M46.79,254.356c0.453-0.69,0.906-1.381,1.359-2.071
			c0.38,0.427,0.759,0.854,1.138,1.28c0.363,0.812,0.506,1.607-0.159,2.348c-0.533-0.252-1.066-0.503-1.6-0.755
			C47.281,254.891,47.035,254.624,46.79,254.356z"/>
		<path fill-rule="evenodd" clip-rule="evenodd" fill="#6E6E6E" d="M49.127,255.913c0.053-0.782,0.105-1.564,0.159-2.348
			c0.217,0.004,0.434,0.006,0.65,0.008c0.06,1.283,0.12,2.567,0.181,3.851C49.788,256.92,49.458,256.417,49.127,255.913z"/>
		<path fill-rule="evenodd" clip-rule="evenodd" fill="#6E6E6E" d="M50.037,257.344c0.481,0,0.963-0.001,1.444-0.002
			C51,257.343,50.518,257.344,50.037,257.344z"/>
		<path fill-rule="evenodd" clip-rule="evenodd" fill="#636363" d="M104.835,213.629c-7.771-7.114-16.664-13.425-18.022-25.137
			c3.904-4.776,1.298-10.771,3.054-16.049c3.452-10.369,7.88-19.711,18.918-23.983c1.792,1.773,4.789,3.145,2.145,6.399
			c-0.166,0.203-0.362,0.368-0.473,0.587c0.499,0.217,1-0.046,1.495,0.003c2.737,0.277,7.978,5.072,8.491,7.709
			c0.255,1.314-0.164,2.273-1.327,2.948c-1.24,0.479-1.98-0.484-2.649-1.094c-5.057-4.616-10.772-4.431-15.286,0.634
			c-0.688,0.773-1.257,1.667-1.764,2.583c-3.037,5.621-5.081,11.432-4.43,18.014c0.477,4.82,5.313,9.635,9.726,9.59
			c1.739-0.018,2.79-0.99,4.102-1.66c6.545-3.742,8.967-10.042,10.458-16.906c0.451-2.076-0.222-4.07-0.531-6.097
			c-0.239-1.566-0.452-3.185,0.395-4.669c3.056-0.947,4.468-0.232,4.61,2.853c0.102,2.21,0.749,3.198,2.849,4.327
			c3.683,1.98,4.052,6.153,4.292,9.91c0.131,2.054-0.04,4.151,0.098,6.238c0.142,2.144-0.116,4.105-2.405,5.307
			c-1.899,0.997-1.879,2.708-0.781,4.346c0.878,1.309,1.577,2.694,2.281,4.093c0.614,1.218,1.509,2.237,3.063,1.896
			c1.559-0.342,1.944-1.619,1.955-3.005c0.024-2.87-0.126-5.745,0.038-8.611c0.085-1.483-0.22-3.28,1.889-3.811
			c3.116,9.067,1.761,18.265,0.787,27.45c-8.964-3.855-8.743,4.863-11.918,8.82c-1.046,1.304,1.343,4.804-1.756,4.625
			c-3.283-0.189-6.535-1.747-9.674-3.018c-0.798-0.323-0.85-2.548-2.367-1.669c-0.485,0.282-0.159,2.058-0.114,3.146
			c0.2,4.805,1.346,10.178-6.294,10.078c6.316-7.346,6.234-23.036-0.254-29.58c-1.104-1.113-2.649-1.791-3.991-2.671
			c-0.982,2.254,1.525,2.622,2.166,4.001C103.992,212.041,104.427,212.829,104.835,213.629z"/>
		<path fill-rule="evenodd" clip-rule="evenodd" fill="#636363" d="M117.383,236.365c-0.27-0.506-0.569-0.82-0.553-1.118
			c0.013-0.241,0.415-0.651,0.629-0.643c0.267,0.012,0.655,0.338,0.73,0.604C118.243,235.395,117.863,235.705,117.383,236.365z"/>
		<path fill-rule="evenodd" clip-rule="evenodd" fill="#636363" d="M135.458,226.121c-0.264,0.521-0.527,1.044-0.791,1.565
			C134.931,227.165,135.194,226.643,135.458,226.121z"/>
		<path fill-rule="evenodd" clip-rule="evenodd" fill="#636363" d="M137.023,223.764c-0.262,0.523-0.524,1.047-0.785,1.57
			C136.499,224.811,136.761,224.287,137.023,223.764z"/>
		<path fill-rule="evenodd" clip-rule="evenodd" fill="#6B6B6B" d="M137.028,190.043c0.167,4.414,0.077,8.858,0.58,13.235
			c0.47,4.101-2.3,4.705-5.038,5.625c-3.147,1.056-3.709-1.458-4.014-3.36c-0.661-4.129-8.096-8.228-3.3-11.354
			c5.411-3.526,3.028-7.491,3.498-11.142c0.642-4.982-1.766-6.537-5.599-4.778c-2.385,1.094-0.929-1.026-1.094-1.628
			c-0.913-3.338,1.258-7.371-2.303-10.118c-0.272,0.274-0.569,0.305-0.891,0.09c-0.182-0.335-0.139-0.638,0.131-0.907
			c-1.63-5.621-4.503-9.246-11.188-7.501c-1.138,0.297-2.839-0.223-3.772-0.986c-0.582-0.476-0.58-2.271-0.189-3.202
			c0.725-1.726,2.192-0.4,3.378-0.426c5.515-0.121,0.742-3.495,1.56-5.129c9.923,0.725,12.79,9.581,18.057,15.67
			c1.565,3.147,3.131,6.294,4.695,9.441c0.498,0.406,0.286,1.163,0.776,1.573c0.001,0.26,0.004,0.52,0.007,0.78
			c0.49,0.408,0.307,1.153,0.783,1.569l0,0c0.47,0.418,0.317,1.148,0.785,1.567l0,0c0.475,0.416,0.302,1.141,0.746,1.571
			c0.536,1.829,1.071,3.658,1.606,5.488c0.877,0.892-0.088,2.244,0.783,3.138C137.026,189.521,137.026,189.782,137.028,190.043z"/>
		<path fill-rule="evenodd" clip-rule="evenodd" fill="#636363" d="M86.818,188.484c-0.243-1.049-0.485-2.098-0.727-3.146
			C86.334,186.387,86.576,187.436,86.818,188.484z"/>
		<path fill-rule="evenodd" clip-rule="evenodd" fill="#636363" d="M137.025,189.26c-0.261-1.046-0.522-2.092-0.783-3.138
			C136.503,187.168,136.764,188.214,137.025,189.26z"/>
		<path fill-rule="evenodd" clip-rule="evenodd" fill="#636363" d="M134.635,180.634c-0.248-0.523-0.497-1.047-0.746-1.571
			C134.138,179.587,134.387,180.11,134.635,180.634z"/>
		<path fill-rule="evenodd" clip-rule="evenodd" fill="#636363" d="M133.889,179.062c-0.261-0.522-0.523-1.045-0.785-1.567
			C133.366,178.018,133.628,178.54,133.889,179.062z"/>
		<path fill-rule="evenodd" clip-rule="evenodd" fill="#636363" d="M132.314,175.146c-0.259-0.524-0.517-1.049-0.776-1.573
			C131.797,174.097,132.056,174.621,132.314,175.146z"/>
		<path fill-rule="evenodd" clip-rule="evenodd" fill="#636363" d="M133.104,177.495c-0.261-0.523-0.522-1.047-0.783-1.569
			C132.583,176.448,132.844,176.972,133.104,177.495z"/>
		<path fill-rule="evenodd" clip-rule="evenodd" fill="#3C3C3C" d="M93.085,248.824c-3.115-0.024-6.231-0.049-9.347-0.073
			c-0.541-0.757-1.082-1.512-1.622-2.269c0.24-0.028,0.481-0.037,0.723-0.024c1.763-0.931,3.816,0.306,5.562-0.747
			c1.583-0.51,3.165-1.021,4.747-1.532C96.968,245.78,92.604,247.269,93.085,248.824z"/>
		<path fill-rule="evenodd" clip-rule="evenodd" fill="#282828" d="M52.345,183.022c-0.122,0.267-0.462,1.015-0.803,1.763
			c-1.222-1.834-2.444-3.667-3.667-5.5c0.497-0.272,1.034-0.831,1.483-0.767C51.562,178.831,52.189,180.462,52.345,183.022z"/>
		<path fill-rule="evenodd" clip-rule="evenodd" fill="#A0A0A0" d="M38.744,186.701c1.361-1.275,2.722-2.55,4.083-3.825
			c0.073,0.116,0.145,0.233,0.217,0.35c-0.114,2.521-1.459,3.742-3.956,3.747C38.974,186.882,38.859,186.792,38.744,186.701z"/>
		<path fill-rule="evenodd" clip-rule="evenodd" fill="#666666" d="M47.657,190.818c0.252-0.511,0.505-1.021,0.757-1.532
			C48.162,189.797,47.909,190.308,47.657,190.818z"/>
		<path fill-rule="evenodd" clip-rule="evenodd" fill="#C9C9C9" d="M39.088,186.973c1.319-1.25,2.637-2.5,3.956-3.748
			c2.576,2.697-0.694,3.421-1.751,4.684C40.256,189.147,39.241,188.687,39.088,186.973z"/>
		<path fill-rule="evenodd" clip-rule="evenodd" fill="#474747" d="M53.95,223.713c-0.229-12.328,5.899-17.938,18.899-17.301
			c11.115,0.545,18.138,8.204,17.136,18.503c-0.303,3.115-2.03,5.291-3.953,7.451c-0.411,0.509-1.138,0.351-1.598,0.756
			c-0.275,0.177-0.55,0.354-0.825,0.531c-1.147,0.981-1.236-0.253-1.657-0.788c-0.213-1.048,0.282-1.919,0.691-2.81
			c0.327-0.655,0.764-1.267,0.899-2.012c3.17-5.605,0.562-9.947-3.07-14.062c-0.874-0.836-1.734-1.699-2.962-2.028
			c-0.653-0.242-1.323-0.422-2.005-0.569c-0.35-0.061-0.697-0.123-1.047-0.178c-2.902-1.729-5.399,0.901-8.151,0.765
			c-4.102,0.385-6.859,2.476-8.194,6.437c-0.387,1.288,0.14,2.729-0.459,3.866C56.921,223.663,56.312,226.195,53.95,223.713z"/>
		<path fill-rule="evenodd" clip-rule="evenodd" fill="#767676" d="M53.95,223.713c2.98-1.645,0.328-5.078,2.244-7.062
			c0.606,0.164,1.04,0.556,1.401,1.047c1.66,12.044,9.062,16.597,21.394,13.138c1.665-0.407,2.875,0.292,3.864,1.545
			c0.252,0.425,0.504,0.851,0.757,1.274C73.462,240.417,55.948,234.548,53.95,223.713z"/>
		<path fill-rule="evenodd" clip-rule="evenodd" fill="#585858" d="M88.402,245.711c-1.854,0.25-3.708,0.498-5.562,0.747
			C84.694,246.209,86.548,245.96,88.402,245.711z"/>
		<path fill-rule="evenodd" clip-rule="evenodd" fill="#767676" d="M84.434,233.122c0.533-0.252,1.065-0.504,1.598-0.756
			C85.5,232.618,84.967,232.87,84.434,233.122z"/>
		<path fill-rule="evenodd" clip-rule="evenodd" fill="#484848" d="M109.57,195.51c-4.045,2.129-8.007,2.557-11.515-0.968
			c-6.009-6.038-4.753-13.384-3.17-20.549c0.53-2.396,2.418-4.494,3.685-6.729c1.128,0.157,2.098,0.557,2.585,1.699
			c0.446,2.938-0.068,5.826-1.635,8.21c-2.163,3.29-2.421,6.401-0.518,9.761c0.622,2.128,1.725,3.857,3.942,4.647
			c2.333,0.88,5.292-0.124,7.083,2.362C110.122,194.54,109.976,195.063,109.57,195.51z"/>
		<path fill-rule="evenodd" clip-rule="evenodd" fill="#2E2E2E" d="M100.185,168.876c-0.572,0.611-1.144,1.222-1.715,1.833
			c0.034-1.148,0.068-2.296,0.102-3.444c5.466-8.794,13.797-9.43,20.427-1.56c0.02,0.254,0.039,0.508,0.057,0.762
			c0.692,2.289-0.681,2.497-2.385,2.382c-1.61-0.017-2.796-0.735-3.532-2.152c-2.919-2.068-5.196-2.141-7.774,0.32
			C103.805,168.505,102.172,168.986,100.185,168.876z"/>
		<path fill-rule="evenodd" clip-rule="evenodd" fill="#4D4D4D" d="M116.796,167.235c0.752-0.256,1.504-0.512,2.257-0.769
			c0.235,0.018,0.47,0.036,0.704,0.056c1.737,11.466,0.394,21.851-10.187,28.987c0.001-0.518,0.002-1.035,0.004-1.552
			c-0.114-0.133-0.229-0.267-0.343-0.399c-0.074-0.351-0.038-0.691,0.092-1.022c0.942-1.203,2.236-2.192,2.36-3.896
			c-0.079-1.553,0.382-2.946,1.171-4.256c0.161-0.361,0.327-0.712,0.488-1.07c3.958-2.996,2.748-7.364,2.959-11.325
			c0.071-1.342-0.887-2.631-0.408-4.047C116.105,167.597,116.407,167.36,116.796,167.235z"/>
		<path fill-rule="evenodd" clip-rule="evenodd" fill="#969696" d="M56.306,218.357c-0.037-0.568-0.075-1.137-0.112-1.705
			c2.087-3.797,5.817-5.466,9.43-7.288c0.153,0.093,0.307,0.184,0.46,0.275c1.882,3.768,1.882,3.768,5.58,0.966
			c0.667-0.1,1.251,0.026,1.743,0.533c0.614,0.634,0.701,1.598,1.392,2.176c-0.451-0.565-0.73-1.159-0.887-1.911
			c-0.38-1.828,0.155-2.394,1.916-1.728l0.022,0.004c0.658,0.684,1.73,0.036,2.382,0.74c1.038,0.523,2.076,1.046,3.114,1.569
			c0.261,0.321,0.369,0.688,0.323,1.099c-0.253,0.871-0.435,1.716-0.254,2.663c0.77,4.046-0.825,7.06-4.192,9.235
			c-4.493-2.47-8.319,0.736-12.449,1.507C60.686,225.097,58.569,221.651,56.306,218.357z"/>
		<path fill-rule="evenodd" clip-rule="evenodd" fill="#868686" d="M75.828,209.676c-0.226,0.305-0.697,0.668-0.64,0.904
			c0.788,3.262,6.932,6.758,1.993,9.272c-2.666,1.357-2.205-6.283-5.195-8.65c-2.258,0.261-4.636,1.065-6.291-1.394
			c-0.027-0.147-0.05-0.295-0.071-0.443C69.053,208.566,72.463,208.365,75.828,209.676z"/>
		<path fill-rule="evenodd" clip-rule="evenodd" fill="#868686" d="M81.354,212.747c0.004-0.252,0.001-0.505-0.008-0.758
			c6.54,4.574,8.924,10.087,3.902,17.273c-0.476,0.377-0.249,1.128-0.784,1.475c-0.537,0.548-1.075,1.096-1.612,1.644
			c-1.321,0.25-2.642,0.5-3.963,0.75c-0.8-1.599,0.424-2.327,1.336-3.253c5.127-5.202,5.401-7.568,1.7-13.6
			C81.263,215.199,80.352,214.116,81.354,212.747z"/>
		<path fill-rule="evenodd" clip-rule="evenodd" fill="#868686" d="M78.232,210.42c-0.794-0.247-1.588-0.493-2.382-0.74
			C76.645,209.927,77.438,210.173,78.232,210.42z"/>
		<path fill-rule="evenodd" clip-rule="evenodd" fill="#767676" d="M84.465,230.737c0.262-0.492,0.523-0.983,0.784-1.475
			C84.988,229.754,84.726,230.245,84.465,230.737z"/>
		<path fill-rule="evenodd" clip-rule="evenodd" fill="#EEEEEE" d="M81.354,212.747c7.586,8.974,6.932,14.389-2.464,20.385
			c-13.849,3.16-22.735-2.653-22.584-14.774c2.511-3.371,2.355-0.348,3.413,1.164c1.348,1.926,3.407,3.354,5.16,4.996
			c4.042,1.594,7.812-0.748,11.739-0.81C81.076,221.299,77.734,215.519,81.354,212.747z"/>
		<path fill-rule="evenodd" clip-rule="evenodd" fill="#E1E1E1" d="M100.958,193.912c-1.3-1.817-2.601-3.635-3.901-5.451
			c-0.645-0.638-0.389-1.457-0.421-2.205c-0.062-1.461-1.413-3.085,0.224-4.345c1.763-1.356,3.106,0.503,4.636,0.857
			c0.508-0.071-0.126,0.005,0.355,0.098c3.38,0.651,2.285-2.721,3.543-3.986c1.287-1.293,4.67,1.053,4.355-2.652
			c0.056-0.403,0.126-0.787,0.193-1.188c0.128-1.055,0.17-2.123,0.544-3.098c0.552-1.437,1.626-2.382,3.193-2.514
			c1.821-0.154,2.145,1.312,2.779,2.596c2.362,4.771-0.601,8.959-1.31,13.391l0.024-0.034c-2.075,3.29-4.028,6.688-7.664,8.596
			C105.315,194.459,103.131,194.742,100.958,193.912z"/>
		<path fill-rule="evenodd" clip-rule="evenodd" fill="#8D8D8D" d="M100.953,185.292c-1.139-0.744-2.278-1.488-3.417-2.233
			c-0.16,1.801-0.319,3.602-0.479,5.402c-4.764-7.456,3.193-12.88,3.128-19.585c3.919-4.201,7.879-8.262,14.19-4.021
			c-0.055,0.199-0.11,0.398-0.167,0.597c-1.536,3.596-1.809,7.446-2.289,11.255v-0.006c-0.715,1.313-1.679,2.601-3.292,2.127
			c-3.297-0.968-3.844,1.425-4.142,3.478C104.152,184.62,103.471,185.866,100.953,185.292z"/>
		<path fill-rule="evenodd" clip-rule="evenodd" fill="#636363" d="M100.958,193.912c2.351-0.241,4.7-0.482,7.05-0.724
			c0.496-0.461,1.005-0.515,1.532-0.053c0.011,0.274,0.023,0.549,0.034,0.822C106.699,194.587,103.822,195.565,100.958,193.912z"/>
		<path fill-rule="evenodd" clip-rule="evenodd" fill="#8D8D8D" d="M116.796,167.235c-0.073,0.291-0.146,0.581-0.218,0.872
			c-2.346,0.366-3.185-0.604-2.549-2.878c0.115-0.125,0.23-0.249,0.346-0.374C115.182,165.648,115.989,166.442,116.796,167.235z"/>
		<path fill-rule="evenodd" clip-rule="evenodd" fill="#C1C1C1" d="M114.029,165.229c0.85,0.959,1.7,1.918,2.55,2.878
			c2.294,5.997,2.241,11.801-1.43,17.306c0.511-3.104-0.309-6.318,1.382-9.414c0.484-0.885-1.483-4.445-2.16-4.397
			c-3.097,0.216-0.828,3.693-2.45,5.105C113.053,172.96,109.682,168.386,114.029,165.229z"/>
		<path fill-rule="evenodd" clip-rule="evenodd" fill="#C1C1C1" d="M109.541,193.136c-0.511,0.018-1.021,0.035-1.532,0.053
			c2.388-2.603,4.776-5.205,7.165-7.809c-0.556,1.298-1.112,2.595-1.669,3.892c-1.077,1.544-2.319,2.92-3.968,3.878L109.541,193.136
			z"/>
		<path fill-rule="evenodd" clip-rule="evenodd" fill="#636363" d="M109.536,193.149c1.323-1.292,2.646-2.585,3.968-3.878
			C112.902,191.302,111.631,192.647,109.536,193.149z"/>
		<path fill-rule="evenodd" clip-rule="evenodd" fill="#D7D7D7" d="M65.695,209.809c2.249-0.221,4.543-0.65,6.291,1.394
			c-0.11,2.168-0.626,4.391-2.948,4.854c-1.223,0.244-3.052-0.559-4.023-1.495C63.368,212.975,64.481,211.268,65.695,209.809z"/>
		<path fill-rule="evenodd" clip-rule="evenodd" fill="#D3D3D3" d="M76.618,223.708c-3.689,3.513-7.647,3.125-11.739,0.811
			c1.084-0.28,2.875-0.259,3.143-0.887C71.046,216.523,73.797,221.247,76.618,223.708z"/>
		<path fill-rule="evenodd" clip-rule="evenodd" fill="#C1C1C1" d="M100.953,185.292c3.122-3.545,4.646-9.129,10.967-8.591
			c-0.906,1.988,0.18,6.082-4.669,3.662c-1.925-0.961-1.113,1.575-1.316,2.616C105.332,186.057,103.318,186.041,100.953,185.292z"/>
		<path fill-rule="evenodd" clip-rule="evenodd" fill="#DCDCDC" d="M106.456,169.487c-0.596,1.812,0.166,4.762-2.993,4.939
			c-1.884,0.106-2.515-1.651-2.405-3.367c0.157-2.431,1.345-4.455,3.807-4.726C106.638,166.139,106.297,168.092,106.456,169.487z"/>
	</g>
</g>
<g id="Layer_4" display="none">
	<g display="inline" opacity="0.5">
		<path fill-rule="evenodd" clip-rule="evenodd" fill="#C0C0C0" d="M227.671,263.046c-2.961,0-5.922,0-8.883,0
			c-2.665-1.732-5.33-2.367-7.995,0c-3.257,0-6.514,0-9.771,0c-1.352-1.979,0.124-3.374,1.013-4.89
			c0.817-5.258,4.366-7.14,9.103-6.562c3.263,0.397,5.267-2.663,8.335-2.25c0.988,0.116,1.634,0.941,2.547,1.221
			c0.912,0.289,1.839,0.536,2.703,0.961c1.952,1.548,5.576,1.524,5.064,5.386C229.159,258.981,229.384,261.349,227.671,263.046z"/>
		<path fill-rule="evenodd" clip-rule="evenodd" fill="#595959" d="M203.699,259.526c-0.893,1.173-1.785,2.347-2.677,3.52
			c-2.962,0-5.922,0-8.884,0c-2.118-3.242-0.581-8.768-6.575-9.72c-1.812-0.288-0.549-2.405,0.153-3.645
			c1.784-1.506,0.687-4.193,2.354-5.747c2.011-0.277,3.591,0.979,5.366,1.534c2.887,0.902,3.656,2.872,2.197,5.419
			c-1.91,3.335-0.445,3.749,2.559,3.56c1.43-0.091,2.79,0.105,4.163-0.633c0.844-0.453,1.713-0.042,1.769,1.168
			C203.945,256.496,204.563,258.08,203.699,259.526z"/>
		<path fill-rule="evenodd" clip-rule="evenodd" fill="#777777" d="M227.671,263.046c0.282-2.092,0.564-4.184,0.848-6.275
			c0.315-0.272,0.682-0.432,1.092-0.496c3.051,0.616,5.738-0.303,8.216-1.983c0.205-0.988,0.407-1.965,0.961-2.819
			c1.17-1.604,2.992-2.328,4.562-3.392c0.999-0.377,2.051-0.311,3.089-0.363c-1.814,5.109-3.628,10.22-5.442,15.329
			C236.554,263.046,232.112,263.046,227.671,263.046z"/>
		<path fill-rule="evenodd" clip-rule="evenodd" fill="#5C5C5C" d="M210.793,263.046c2.665-5.109,5.33-3.949,7.995,0
			C216.123,263.046,213.458,263.046,210.793,263.046z"/>
		<path fill-rule="evenodd" clip-rule="evenodd" fill="#535353" d="M188.539,203.435c14.461-15.857,37.888-16.572,54.111-1.661
			c1.943,1.785,3.93,3.523,5.896,5.284c0.765,1.451,1.529,2.903,2.293,4.354c0.255,0.343,0.353,0.725,0.294,1.147
			c-1.534,0.941-2.394,2.806-4.343,3.189c-1.59-0.216-2-1.444-2.534-2.724c-4.892-11.712-21.66-19.5-33.73-15.735
			c-4.37,1.363-8.79,2.613-11.797,6.466c-3.438,0.043-6.784,1.121-10.243,0.905C188.145,204.238,188.161,203.829,188.539,203.435z"
			/>
		<path fill-rule="evenodd" clip-rule="evenodd" fill="#6F6F6F" d="M250.626,212.438c0.071-0.342,0.143-0.684,0.214-1.025
			c8.461,8.416,8.169,21.01-0.984,28.546c-2.676,2.202-4.189,4.322-3.418,7.759c-0.263,1.048-0.255,2.334-1.904,2.159
			c-1.561-2.905-1.947-6.074-2.083-9.301c0.221-2.02,1.776-2.867,3.279-3.761c3.54-2.7,6.121-5.975,6.215-10.668
			c0.038-1.875-0.347-3.547-2.717-3.73c-0.428-0.178-0.776-0.447-1.062-0.809C246.853,217.978,247.933,214.99,250.626,212.438z"/>
		<path fill-rule="evenodd" clip-rule="evenodd" fill="#656565" d="M188.539,203.435c0.03,0.342,0.061,0.684,0.091,1.024
			c-0.243,2.782,2.261,1.272,3.277,2.09c3.227,3.807,2.919,4.894-1.483,7.003c-3.125,1.498-6.424,2.932-7.831,6.545
			c-3.523,8.521-0.79,16.872,6.743,20.729c1.482,0.759,3.275,1.759,1.755,4.01c-0.937,0.488-1.743,0.234-2.479-0.43
			c-0.965,1.759-1.93,3.517-2.895,5.275c-0.087-1.632,1.387-3.124-0.293-4.932C171.729,230.019,172.755,217.036,188.539,203.435z"/>
		<path fill-rule="evenodd" clip-rule="evenodd" fill="#404040" d="M188.611,244.406c0.855,0.008,1.711,0.015,2.565,0.022
			c2.438-1.486,5.042-1.246,7.686-0.788c11.914,2.065,23.675,1.314,35.293-1.974c2.143-0.38,4.1,0.57,6.153,0.846
			c4.051,4.706,3.626,7.325-1.419,8.802c-0.659,0.317-1.35,0.399-2.062,0.252c-5.187-1.412-10.262-0.108-15.359,0.674
			c-0.623-0.121-1.247-0.243-1.87-0.365c-1.587-1.291-2.977-1.429-4.184,0.549c-0.729,1.194-2.056,2.278-3.209,1.185
			c-3.16-2.997-5.802-0.773-8.604,0.43c-2.138,3.206-7.307,2.268-8.76,6.408c-0.961-2.605-5.511-4.341-3.583-7.238
			C194.365,248.541,192.558,246.412,188.611,244.406z"/>
		<path fill-rule="evenodd" clip-rule="evenodd" fill="#A7A7A7" d="M237.396,249.136c0.266,0.218,0.531,0.435,0.797,0.652
			c0.792,0.397,1.605,0.771,1.918,1.707c-0.026,1.149-0.054,2.298-0.08,3.447c-0.254,0.53-0.693,1.22-1.172,1.119
			c-3.213-0.675-6.159,1.064-9.296,0.916c-0.348-0.068-0.696-0.138-1.045-0.206c-1.759-1.177-3.519-2.354-5.277-3.529
			c0.132-0.417,0.264-0.928,0.645-1.097C228.185,250.241,232.998,250.621,237.396,249.136z"/>
		<path fill-rule="evenodd" clip-rule="evenodd" fill="#505050" d="M237.396,249.136c-3.981,3.907-9.548,2.356-14.155,4.106
			c-0.591-0.334-1.183-0.668-1.773-1.002C225.998,247.209,231.842,248.911,237.396,249.136z"/>
		<path fill-rule="evenodd" clip-rule="evenodd" fill="#5F5F5F" d="M203.602,254.038c4.646-5.778,10.585-2.021,15.995-2.165
			c-4.114,5.014-14.759-3.542-15.897,7.653C203.667,257.697,203.634,255.868,203.602,254.038z"/>
		<path fill-rule="evenodd" clip-rule="evenodd" fill="#494949" d="M229.563,256.978c2.993-3.232,6.927-1.628,10.468-2.035
			c2.256,1.5,1.639,3.59,0.286,4.888c-1.876,1.801-2.156-1.007-3.134-1.722c-1.611-1.179-2.932-1.064-4.26,0.353
			c-0.831,0.888-1.712,1.728-2.571,2.589C230.09,259.692,229.827,258.335,229.563,256.978z"/>
		<path fill-rule="evenodd" clip-rule="evenodd" fill="#505050" d="M240.111,251.495c-0.639-0.568-1.278-1.138-1.917-1.708
			c6.848-0.318,0.051-4.651,1.895-6.442c-0.081-2.517,0.892-3.639,3.477-2.63c1.983,2.878,2.068,5.955,0.968,9.16
			C243.06,250.416,241.585,250.956,240.111,251.495z"/>
		<path fill-rule="evenodd" clip-rule="evenodd" fill="#717171" d="M198.198,202.757c-0.796-2.596,0.675-3.741,2.798-4.682
			c17.151-7.595,33.667-3.542,44.777,11.277c1.091,1.454,0.971,3.816,1.412,5.758c0.11,0.099,0.287,0.179,0.32,0.299
			c0.693,2.533,1.888,5.729-1.044,7.033c-3.413,1.519-3.691-2.537-5.006-4.357c-1.395-1.932-2.038-4.388-3.553-6.278
			c-2.641-3.296-5.281-3.185-7.303,0.337c-0.467,0.812-0.845,1.682-1.43,2.433c-2.125,2.726-3.785,2.825-6.077,0.306
			c-2.085-2.291-3.092-5.312-5.366-7.537c-2.709-2.651-5.491-2.603-8.399-0.819c-3.026,1.856-5.487,4.323-7.163,7.544
			c-1.914,3.678-3.636,3.809-5.933,0.583C196.561,210.635,198.167,206.826,198.198,202.757z"/>
		<path fill-rule="evenodd" clip-rule="evenodd" fill="#454545" d="M197.481,214.192c2.544,2.593,2.82-0.377,3.569-1.573
			c7.154-11.421,13.698-11.84,21.694-1.087c2.521,3.393,4.223,4.034,6.702,0.018c3.863-6.261,7.503-4.049,10.709,0.755
			c0.809,1.212,1.096,2.774,1.914,3.977c1.164,1.711,1.418,4.606,4.083,4.405c0.481-0.035,0.695-3.627,1.033-5.576
			c0.543-1.669,1.159-3.244,3.44-2.674c-0.517,2.981-1.033,5.962-1.55,8.941c1.758,3.418-0.112,6.603-1.887,8.771
			c-2.247,2.748-3.84-0.396-5.252-2.104c-1.383-2.527-2.14-5.373-3.86-7.734c-2.073-4.753-2.465-4.948-5.537-2.729
			c-4.633,3.387-9.104,3.238-13.406-0.599c-4.661-9.087-7.736-9.226-13.761-0.577c-1.11,1.593-2.437,2.977-3.9,4.214
			c-3.692,3.122-6.936,2.129-8.66-2.589c1.076-2.062-0.816-4.839,1.558-6.593C197.071,210.475,196.184,213.567,197.481,214.192z"/>
		<path fill-rule="evenodd" clip-rule="evenodd" fill="#363636" d="M197.481,214.192c-2.048,0.018-1.656-1.593-1.868-2.8
			c-1.723-1.181-1.7-4.129-4.388-4.333c-2.41,2.021-4.492,7.872-6.914,5.59c-3.126-2.947,3.025-5.18,4.318-8.19
			c2.713-3.248,6.224-2.017,9.569-1.703C201.182,206.771,197.951,210.395,197.481,214.192z"/>
		<path fill-rule="evenodd" clip-rule="evenodd" fill="#B8B8B8" d="M249.814,221.197c0.354-1.151-0.458-3.038,1.42-3.15
			c0.546-0.033,1.424,1.697,1.774,2.745c2.421,7.234,0.583,13.074-5.906,17.295c-2.314,1.01-2.89-0.521-2.839-2.228
			c0.046-1.557,0.214-3.644,1.347-4.451C249.274,228.799,248.55,224.636,249.814,221.197z"/>
		<path fill-rule="evenodd" clip-rule="evenodd" fill="#A6A6A6" d="M249.814,221.197c0.835,4.504-0.841,8.189-3.369,11.817
			c-0.968,1.388-1.604,3.655,0.657,5.073c-1.179,0.876-2.357,1.752-3.537,2.628c-1.159,0.876-2.318,1.753-3.477,2.629
			c-1.811,0.322-3.622,0.644-5.432,0.966c-2.109-0.326-1.146-1.73-0.534-2.333c1.319-1.302,2.168-3.018,3.702-4.103
			c0.231-0.166,0.489-0.309,0.697-0.505c3.925-3.69,3.96-4.489,0.39-8.46c-0.105-0.687-0.164-1.366-0.013-2.054
			c1.155-2.05,2.406-2.351,3.794-0.217c1.518,1.417,2.904,6.301,4.702,0.168c0.533-1.818,1.119-3.62,1.682-5.43
			C249.325,221.325,249.571,221.265,249.814,221.197z"/>
		<path fill-rule="evenodd" clip-rule="evenodd" fill="#BCBCBC" d="M240.049,239.89c-1.798,1.474-3.595,2.947-5.392,4.421
			c-14.484,3.415-28.978,3.578-43.479,0.118c-12.517-7.942-15.22-14.299-10.596-24.917c2.4-3.056,6.476-3.723,9.18-6.479
			c0.998-1.016,2.759,0.104,3.512,1.558c0.663,1.28,0.962,2.712,1.492,4.051c5.786,3.955,6.901-1.64,9.171-4.591
			c2.53-3.289,4.728-7.249,9.514-6.997c4.746,0.25,5.662,4.547,7.078,8.088c2.701,4.087,2.472,4.947-1.751,6.582
			c-3.135,0.266-5.837-3.039-9.177-1.119c-3.786,0.913-7.071,2.308-6.936,7.07c-0.141,0.811-0.714,1.633,0.015,2.403
			c1.5,0.268,2.458-0.701,3.519-1.423c2.986-2.032,5.623-1.799,7.827,1.221c0.349,1.328-0.196,2.269-1.295,2.965
			c-0.983,0.623-2.302,1.171-1.952,2.587c0.4,1.625,2.009,1.428,3.28,1.622c0.579,0.089,1.161,0.153,1.71,0.378
			c2.345,2.06,3.679,0.298,4.801-1.426c0.85-1.304,0.87-2.946,1.082-4.484c0.247-2.174,0.381-4.349,0.344-6.531
			c0.984-2.659,1.99-5.151,5.153-6.051c1.914-0.545,2.998-2.288,4.042-3.912c0.694-1.534,0.912-4.332,2.985-3.69
			c3.266,1.013,4.48,4.423,5.864,7.358c1.16,5.078,1.079,5.22-3.379,5.991c-2.336,0.403-3.387,1.994-3.82,4.147
			c0.561,1.724,1.727,2.088,3.457,1.823c1.386-0.212,2.881-1.024,4.262,0.124c1.012,1.445,0.631,2.712-0.462,3.928
			C238.571,236.405,238.872,238.149,240.049,239.89z"/>
		<path fill-rule="evenodd" clip-rule="evenodd" fill="#8E8E8E" d="M194.766,218.642c-5.349-9.82-9.298,3.153-14.184,0.87
			c0.499-5.123,5.575-5.06,8.584-7.115c2.408-1.646,3.479-2.708,2.06-5.337c1.452-0.439,3.415-1.69,4.259-1.16
			c2.247,1.41-0.271,3.612,0.129,5.494C195.33,213.809,195.048,216.226,194.766,218.642z"/>
		<path fill-rule="evenodd" clip-rule="evenodd" fill="#6E6E6E" d="M200.698,253.102c-0.651-0.975-1.577-1.83-1.41-2.224
			c0.318-0.75,1.18-1.569,1.959-1.755c1.054-0.25,2.234,0.369,1.773,1.697C202.74,251.627,201.693,252.167,200.698,253.102z"/>
		<path fill-rule="evenodd" clip-rule="evenodd" fill="#8A8A8A" d="M231.17,229.277c0.579-3.788,3.01-5.666,6.558-6.491
			c2.172-0.505,2.287-2.306,2.312-4.095c0.885,2.649,1.77,5.299,2.653,7.948c-0.875,0.271-1.75,0.544-2.626,0.816
			c-0.891,0.865,0.262,2.951-1.098,3.028c-2.338,0.134-4.333,1.684-6.609,1.414C231.14,231.754,230.305,230.729,231.17,229.277z"/>
		<path fill-rule="evenodd" clip-rule="evenodd" fill="#9D9D9D" d="M217.915,220.395c3.425-0.48,3.27-2.742,2.613-5.253
			c3.598,3.857,7.157,4.315,10.662-0.118c-2.406,3.531-4.813,7.062-7.22,10.592C222.273,223.503,218.213,224.131,217.915,220.395z"
			/>
		<path fill-rule="evenodd" clip-rule="evenodd" fill="#D9D9D9" d="M240.049,239.89c-2.978-0.25-7.09,0.285-4.864-4.759
			c0.768-1.74,3.228-2.733,4.915-4.068c-0.55-0.57-0.488-1.111,0.078-1.629c1.544-0.74,2.582-0.241,3.072,1.344
			C244.43,234.592,242.338,237.281,240.049,239.89z"/>
		<path fill-rule="evenodd" clip-rule="evenodd" fill="#A3A3A3" d="M240.178,229.434c-0.026,0.543-0.052,1.086-0.078,1.629
			c-3.035-0.301-7.665,7.376-8.93-1.785c2.966-0.606,5.933-1.214,8.897-1.821C240.104,228.115,240.141,228.774,240.178,229.434z"/>
		<path fill-rule="evenodd" clip-rule="evenodd" fill="#DADADA" d="M215.24,239.074c-3.799,0.721-8.455,0.701-9.216-3.327
			c-0.834-4.41,4.894-3.638,7.463-5.539c0.032-0.592-0.121,0.153-0.073-0.437c0.22-2.667,0.268-5.945,3.886-5.698
			c3.245,0.222,3.789,3.202,3.704,6.061c-0.085,2.859,0.538,5.821-2.418,7.949C217.455,238.897,216.644,239.665,215.24,239.074z"/>
		<path fill-rule="evenodd" clip-rule="evenodd" fill="#A6A6A6" d="M215.24,239.074c1.387-1.815,3.311-3.443,4.022-5.493
			c0.882-2.537,1.488-6.182-1.39-7.538c-3.255-1.533-2.54,3.082-4.386,4.164c-5.142-1.89-8.175,0.339-9.962,5.065
			c-0.153,0.404-0.734,1.057-0.769,1.035c-1.929-1.203-2.391-3.168-2.625-5.24c2.196-1.249,5.616-1.171,5.427-5.007
			c1.49-1.063,2.716-2.409,3.97-3.727c1.911,0.183,3.368-1.263,5.182-1.445c4.229,1.415,8.17,2.969,7.358,8.748
			c-0.126,0.901,0.116,2.333,1.127,3.157c0.028,4.347-2.698,6.636-6.289,8.104C215.299,241.557,214.703,240.687,215.24,239.074z"/>
		<path fill-rule="evenodd" clip-rule="evenodd" fill="#676767" d="M223.195,232.794c-3.814-2.829-2.369-10.034-8.854-10.641
			c-1.525-0.041-3.013,0.502-4.583,0.069c-1.978-0.545-2.4-1.343-0.794-2.811c3.145-1.134,6.08-0.377,8.951,0.982
			c2.294,1.423,6.73,0.358,6.057,5.222C223.712,228.009,223.454,230.401,223.195,232.794z"/>
		<path fill-rule="evenodd" clip-rule="evenodd" fill="#7F7F7F" d="M208.964,219.412c0.606,3.239,3.926,1.159,5.377,2.741
			c-0.649,1.722-1.3,3.443-1.949,5.165c-0.821-1.427-1.643-2.853-2.464-4.278c-1.583,0.394-2.518,1.721-3.76,2.611
			c-0.675,0.677-0.513,1.585-0.694,2.401c-0.282,1.276-1.171,1.987-2.435,1.965c-1.562-0.028-2.287-0.934-2.083-2.517
			C201.234,222.438,204.386,220.219,208.964,219.412z"/>
		<path fill-rule="evenodd" clip-rule="evenodd" fill="#9C9C9C" d="M200.956,227.501c5.014,3.227,2.792-2.615,4.471-3.568
			c1.148,0.598,1.543,1.46,0.939,2.672c1.231,6.111-2.984,4.613-6.234,4.463C200.406,229.879,200.682,228.689,200.956,227.501z"/>
		<path fill-rule="evenodd" clip-rule="evenodd" fill="#BCBCBC" d="M206.366,226.604c-0.312-0.89-0.626-1.78-0.939-2.671
			c1.239-1.612,2.698-2.118,4.5-0.894C209.913,225.399,209.722,227.583,206.366,226.604z"/>
	</g>
</g>
</svg>
